<?xml version="1.0" encoding="utf-8" standalone="no"?>
<!DOCTYPE svg PUBLIC "-//W3C//DTD SVG 1.1//EN"
  "http://www.w3.org/Graphics/SVG/1.1/DTD/svg11.dtd">
<svg xmlns:xlink="http://www.w3.org/1999/xlink" width="518.127889pt" height="525.535639pt" viewBox="0 0 518.127889 525.535639" xmlns="http://www.w3.org/2000/svg" version="1.1">
 <metadata>
  <rdf:RDF xmlns:dc="http://purl.org/dc/elements/1.1/" xmlns:cc="http://creativecommons.org/ns#" xmlns:rdf="http://www.w3.org/1999/02/22-rdf-syntax-ns#">
   <cc:Work>
    <dc:type rdf:resource="http://purl.org/dc/dcmitype/StillImage"/>
    <dc:date>2025-09-02T17:02:07.706066</dc:date>
    <dc:format>image/svg+xml</dc:format>
    <dc:creator>
     <cc:Agent>
      <dc:title>Matplotlib v3.8.4, https://matplotlib.org/</dc:title>
     </cc:Agent>
    </dc:creator>
   </cc:Work>
  </rdf:RDF>
 </metadata>
 <defs>
  <style type="text/css">*{stroke-linejoin: round; stroke-linecap: butt}</style>
 </defs>
 <g id="figure_1">
  <g id="patch_1">
   <path d="M 0 525.535639 
L 518.127889 525.535639 
L 518.127889 0 
L 0 0 
z
" style="fill: #ffffff"/>
  </g>
  <g id="axes_1">
   <g id="patch_2">
    <path d="M 98.089902 335.300824 
L 516.589902 335.300824 
L 516.589902 10.377748 
L 98.089902 10.377748 
z
" style="fill: #ffffff"/>
   </g>
   <g id="matplotlib.axis_1">
    <g id="xtick_1">
     <g id="line2d_1">
      <path d="M 117.112629 335.300824 
L 117.112629 10.377748 
" clip-path="url(#pc7a48df5f3)" style="fill: none; stroke-dasharray: 1.85,0.8; stroke-dashoffset: 0; stroke: #b0b0b0; stroke-opacity: 0.7; stroke-width: 0.5"/>
     </g>
     <g id="line2d_2">
      <defs>
       <path id="m71593f0a93" d="M 0 0 
L 0 5 
" style="stroke: #000000; stroke-width: 2"/>
      </defs>
      <g>
       <use xlink:href="#m71593f0a93" x="117.112629" y="335.300824" style="stroke: #000000; stroke-width: 2"/>
      </g>
     </g>
    </g>
    <g id="xtick_2">
     <g id="line2d_3">
      <path d="M 197.208323 335.300824 
L 197.208323 10.377748 
" clip-path="url(#pc7a48df5f3)" style="fill: none; stroke-dasharray: 1.85,0.8; stroke-dashoffset: 0; stroke: #b0b0b0; stroke-opacity: 0.7; stroke-width: 0.5"/>
     </g>
     <g id="line2d_4">
      <g>
       <use xlink:href="#m71593f0a93" x="197.208323" y="335.300824" style="stroke: #000000; stroke-width: 2"/>
      </g>
     </g>
    </g>
    <g id="xtick_3">
     <g id="line2d_5">
      <path d="M 297.32794 335.300824 
L 297.32794 10.377748 
" clip-path="url(#pc7a48df5f3)" style="fill: none; stroke-dasharray: 1.85,0.8; stroke-dashoffset: 0; stroke: #b0b0b0; stroke-opacity: 0.7; stroke-width: 0.5"/>
     </g>
     <g id="line2d_6">
      <g>
       <use xlink:href="#m71593f0a93" x="297.32794" y="335.300824" style="stroke: #000000; stroke-width: 2"/>
      </g>
     </g>
    </g>
    <g id="xtick_4">
     <g id="line2d_7">
      <path d="M 397.447557 335.300824 
L 397.447557 10.377748 
" clip-path="url(#pc7a48df5f3)" style="fill: none; stroke-dasharray: 1.85,0.8; stroke-dashoffset: 0; stroke: #b0b0b0; stroke-opacity: 0.7; stroke-width: 0.5"/>
     </g>
     <g id="line2d_8">
      <g>
       <use xlink:href="#m71593f0a93" x="397.447557" y="335.300824" style="stroke: #000000; stroke-width: 2"/>
      </g>
     </g>
    </g>
    <g id="xtick_5">
     <g id="line2d_9">
      <path d="M 497.567174 335.300824 
L 497.567174 10.377748 
" clip-path="url(#pc7a48df5f3)" style="fill: none; stroke-dasharray: 1.85,0.8; stroke-dashoffset: 0; stroke: #b0b0b0; stroke-opacity: 0.7; stroke-width: 0.5"/>
     </g>
     <g id="line2d_10">
      <g>
       <use xlink:href="#m71593f0a93" x="497.567174" y="335.300824" style="stroke: #000000; stroke-width: 2"/>
      </g>
     </g>
    </g>
   </g>
   <g id="matplotlib.axis_2">
    <g id="ytick_1">
     <g id="line2d_11">
      <path d="M 98.089902 334.892845 
L 516.589902 334.892845 
" clip-path="url(#pc7a48df5f3)" style="fill: none; stroke-dasharray: 1.85,0.8; stroke-dashoffset: 0; stroke: #b0b0b0; stroke-opacity: 0.7; stroke-width: 0.5"/>
     </g>
     <g id="line2d_12">
      <defs>
       <path id="m1d92816356" d="M 0 0 
L -5 0 
" style="stroke: #000000; stroke-width: 2"/>
      </defs>
      <g>
       <use xlink:href="#m1d92816356" x="98.089902" y="334.892845" style="stroke: #000000; stroke-width: 2"/>
      </g>
     </g>
     <g id="text_1">
      <!-- $\mathdefault{0}$ -->
      <g transform="translate(75.882758 345.270592) scale(0.3 -0.3)">
       <defs>
        <path id="CMR17-30" d="M 2688 2038 
C 2688 2430 2682 3099 2413 3613 
C 2176 4063 1798 4224 1466 4224 
C 1158 4224 768 4082 525 3620 
C 269 3137 243 2539 243 2038 
C 243 1671 250 1112 448 623 
C 723 -39 1216 -128 1466 -128 
C 1760 -128 2208 -7 2470 604 
C 2662 1048 2688 1568 2688 2038 
z
M 1466 -26 
C 1056 -26 813 328 723 816 
C 653 1196 653 1749 653 2109 
C 653 2604 653 3015 736 3407 
C 858 3954 1216 4121 1466 4121 
C 1728 4121 2067 3947 2189 3420 
C 2272 3054 2278 2623 2278 2109 
C 2278 1691 2278 1176 2202 797 
C 2067 96 1690 -26 1466 -26 
z
" transform="scale(0.015625)"/>
       </defs>
       <use xlink:href="#CMR17-30" transform="scale(0.996264)"/>
      </g>
     </g>
    </g>
    <g id="ytick_2">
     <g id="line2d_13">
      <path d="M 98.089902 280.806995 
L 516.589902 280.806995 
" clip-path="url(#pc7a48df5f3)" style="fill: none; stroke-dasharray: 1.85,0.8; stroke-dashoffset: 0; stroke: #b0b0b0; stroke-opacity: 0.7; stroke-width: 0.5"/>
     </g>
     <g id="line2d_14">
      <g>
       <use xlink:href="#m1d92816356" x="98.089902" y="280.806995" style="stroke: #000000; stroke-width: 2"/>
      </g>
     </g>
     <g id="text_2">
      <!-- $\mathdefault{1}$ -->
      <g transform="translate(75.882758 291.184743) scale(0.3 -0.3)">
       <defs>
        <path id="CMR17-31" d="M 1702 4083 
C 1702 4217 1696 4224 1606 4224 
C 1357 3927 979 3833 621 3820 
C 602 3820 570 3820 563 3808 
C 557 3795 557 3782 557 3648 
C 755 3648 1088 3686 1344 3839 
L 1344 467 
C 1344 243 1331 166 781 166 
L 589 166 
L 589 0 
C 896 6 1216 12 1523 12 
C 1830 12 2150 6 2458 0 
L 2458 166 
L 2266 166 
C 1715 166 1702 236 1702 467 
L 1702 4083 
z
" transform="scale(0.015625)"/>
       </defs>
       <use xlink:href="#CMR17-31" transform="scale(0.996264)"/>
      </g>
     </g>
    </g>
    <g id="ytick_3">
     <g id="line2d_15">
      <path d="M 98.089902 226.721146 
L 516.589902 226.721146 
" clip-path="url(#pc7a48df5f3)" style="fill: none; stroke-dasharray: 1.85,0.8; stroke-dashoffset: 0; stroke: #b0b0b0; stroke-opacity: 0.7; stroke-width: 0.5"/>
     </g>
     <g id="line2d_16">
      <g>
       <use xlink:href="#m1d92816356" x="98.089902" y="226.721146" style="stroke: #000000; stroke-width: 2"/>
      </g>
     </g>
     <g id="text_3">
      <!-- $\mathdefault{2}$ -->
      <g transform="translate(75.882758 237.098893) scale(0.3 -0.3)">
       <defs>
        <path id="CMR17-32" d="M 2669 990 
L 2554 990 
C 2490 537 2438 460 2413 422 
C 2381 371 1920 371 1830 371 
L 602 371 
C 832 620 1280 1073 1824 1596 
C 2214 1966 2669 2400 2669 3033 
C 2669 3788 2067 4224 1395 4224 
C 691 4224 262 3603 262 3027 
C 262 2777 448 2745 525 2745 
C 589 2745 781 2783 781 3007 
C 781 3206 614 3264 525 3264 
C 486 3264 448 3257 422 3244 
C 544 3788 915 4057 1306 4057 
C 1862 4057 2227 3616 2227 3033 
C 2227 2477 1901 1998 1536 1583 
L 262 147 
L 262 0 
L 2515 0 
L 2669 990 
z
" transform="scale(0.015625)"/>
       </defs>
       <use xlink:href="#CMR17-32" transform="scale(0.996264)"/>
      </g>
     </g>
    </g>
    <g id="ytick_4">
     <g id="line2d_17">
      <path d="M 98.089902 172.635296 
L 516.589902 172.635296 
" clip-path="url(#pc7a48df5f3)" style="fill: none; stroke-dasharray: 1.85,0.8; stroke-dashoffset: 0; stroke: #b0b0b0; stroke-opacity: 0.7; stroke-width: 0.5"/>
     </g>
     <g id="line2d_18">
      <g>
       <use xlink:href="#m1d92816356" x="98.089902" y="172.635296" style="stroke: #000000; stroke-width: 2"/>
      </g>
     </g>
     <g id="text_4">
      <!-- $\mathdefault{3}$ -->
      <g transform="translate(75.882758 183.013044) scale(0.3 -0.3)">
       <defs>
        <path id="CMR17-33" d="M 1414 2176 
C 1984 2176 2234 1673 2234 1094 
C 2234 322 1824 25 1453 25 
C 1114 25 563 193 390 691 
C 422 678 454 678 486 678 
C 640 678 755 780 755 947 
C 755 1132 614 1216 486 1216 
C 378 1216 211 1164 211 927 
C 211 335 787 -128 1466 -128 
C 2176 -128 2720 432 2720 1087 
C 2720 1718 2208 2176 1600 2246 
C 2086 2347 2554 2776 2554 3353 
C 2554 3856 2048 4224 1472 4224 
C 890 4224 378 3862 378 3347 
C 378 3123 544 3084 627 3084 
C 762 3084 877 3167 877 3334 
C 877 3500 762 3584 627 3584 
C 602 3584 570 3584 544 3571 
C 730 3999 1235 4076 1459 4076 
C 1683 4076 2106 3966 2106 3347 
C 2106 3167 2080 2851 1862 2574 
C 1670 2329 1453 2316 1242 2297 
C 1210 2297 1062 2284 1037 2284 
C 992 2278 966 2272 966 2227 
C 966 2182 973 2176 1101 2176 
L 1414 2176 
z
" transform="scale(0.015625)"/>
       </defs>
       <use xlink:href="#CMR17-33" transform="scale(0.996264)"/>
      </g>
     </g>
    </g>
    <g id="ytick_5">
     <g id="line2d_19">
      <path d="M 98.089902 118.549447 
L 516.589902 118.549447 
" clip-path="url(#pc7a48df5f3)" style="fill: none; stroke-dasharray: 1.85,0.8; stroke-dashoffset: 0; stroke: #b0b0b0; stroke-opacity: 0.7; stroke-width: 0.5"/>
     </g>
     <g id="line2d_20">
      <g>
       <use xlink:href="#m1d92816356" x="98.089902" y="118.549447" style="stroke: #000000; stroke-width: 2"/>
      </g>
     </g>
     <g id="text_5">
      <!-- $\mathdefault{4}$ -->
      <g transform="translate(75.882758 128.927194) scale(0.3 -0.3)">
       <defs>
        <path id="CMR17-34" d="M 2150 4147 
C 2150 4281 2144 4288 2029 4288 
L 128 1254 
L 128 1088 
L 1779 1088 
L 1779 460 
C 1779 230 1766 166 1318 166 
L 1197 166 
L 1197 0 
C 1402 12 1747 12 1965 12 
C 2182 12 2528 12 2733 0 
L 2733 166 
L 2611 166 
C 2163 166 2150 230 2150 460 
L 2150 1088 
L 2803 1088 
L 2803 1254 
L 2150 1254 
L 2150 4147 
z
M 1798 3723 
L 1798 1254 
L 256 1254 
L 1798 3723 
z
" transform="scale(0.015625)"/>
       </defs>
       <use xlink:href="#CMR17-34" transform="scale(0.996264)"/>
      </g>
     </g>
    </g>
    <g id="ytick_6">
     <g id="line2d_21">
      <path d="M 98.089902 64.463597 
L 516.589902 64.463597 
" clip-path="url(#pc7a48df5f3)" style="fill: none; stroke-dasharray: 1.85,0.8; stroke-dashoffset: 0; stroke: #b0b0b0; stroke-opacity: 0.7; stroke-width: 0.5"/>
     </g>
     <g id="line2d_22">
      <g>
       <use xlink:href="#m1d92816356" x="98.089902" y="64.463597" style="stroke: #000000; stroke-width: 2"/>
      </g>
     </g>
     <g id="text_6">
      <!-- $\mathdefault{5}$ -->
      <g transform="translate(75.882758 74.841345) scale(0.3 -0.3)">
       <defs>
        <path id="CMR17-35" d="M 730 3750 
C 794 3724 1056 3641 1325 3641 
C 1920 3641 2246 3961 2432 4140 
C 2432 4191 2432 4224 2394 4224 
C 2387 4224 2374 4224 2323 4198 
C 2099 4102 1837 4032 1517 4032 
C 1325 4032 1037 4055 723 4191 
C 653 4224 640 4224 634 4224 
C 602 4224 595 4217 595 4090 
L 595 2231 
C 595 2113 595 2080 659 2080 
C 691 2080 704 2093 736 2139 
C 941 2435 1222 2560 1542 2560 
C 1766 2560 2246 2415 2246 1293 
C 2246 1087 2246 716 2054 422 
C 1894 159 1645 25 1370 25 
C 947 25 518 319 403 812 
C 429 806 480 793 506 793 
C 589 793 749 838 749 1036 
C 749 1209 627 1280 506 1280 
C 358 1280 262 1190 262 1011 
C 262 454 704 -128 1382 -128 
C 2042 -128 2669 441 2669 1267 
C 2669 2054 2170 2662 1549 2662 
C 1222 2662 947 2540 730 2304 
L 730 3750 
z
" transform="scale(0.015625)"/>
       </defs>
       <use xlink:href="#CMR17-35" transform="scale(0.996264)"/>
      </g>
     </g>
    </g>
    <g id="ytick_7">
     <g id="line2d_23">
      <path d="M 98.089902 10.377748 
L 516.589902 10.377748 
" clip-path="url(#pc7a48df5f3)" style="fill: none; stroke-dasharray: 1.85,0.8; stroke-dashoffset: 0; stroke: #b0b0b0; stroke-opacity: 0.7; stroke-width: 0.5"/>
     </g>
     <g id="line2d_24">
      <g>
       <use xlink:href="#m1d92816356" x="98.089902" y="10.377748" style="stroke: #000000; stroke-width: 2"/>
      </g>
     </g>
     <g id="text_7">
      <!-- $\mathdefault{6}$ -->
      <g transform="translate(75.882758 20.755495) scale(0.3 -0.3)">
       <defs>
        <path id="CMR17-36" d="M 678 2198 
C 678 3712 1395 4076 1811 4076 
C 1946 4076 2272 4049 2400 3782 
C 2298 3782 2106 3782 2106 3558 
C 2106 3385 2246 3328 2336 3328 
C 2394 3328 2566 3353 2566 3571 
C 2566 3987 2246 4224 1805 4224 
C 1043 4224 243 3411 243 2011 
C 243 257 966 -128 1478 -128 
C 2099 -128 2688 431 2688 1295 
C 2688 2101 2170 2688 1517 2688 
C 1126 2688 838 2430 678 1979 
L 678 2198 
z
M 1478 25 
C 691 25 691 1212 691 1450 
C 691 1914 909 2585 1504 2585 
C 1613 2585 1926 2585 2138 2140 
C 2253 1889 2253 1624 2253 1302 
C 2253 954 2253 696 2118 438 
C 1978 173 1773 25 1478 25 
z
" transform="scale(0.015625)"/>
       </defs>
       <use xlink:href="#CMR17-36" transform="scale(0.996264)"/>
      </g>
     </g>
    </g>
    <g id="text_8">
     <!-- Average ligand -->
     <g transform="translate(20.755495 262.147112) rotate(-90) scale(0.3 -0.3)">
      <defs>
       <path id="CMR17-41" d="M 2323 4441 
C 2291 4524 2278 4544 2214 4544 
C 2150 4544 2138 4524 2106 4441 
L 749 580 
C 627 236 371 166 147 166 
L 147 0 
C 262 12 518 12 640 12 
C 800 12 1056 12 1210 0 
L 1210 166 
C 909 179 864 382 864 459 
C 864 516 877 548 890 586 
L 1229 1536 
L 2906 1536 
L 3290 453 
C 3322 376 3322 363 3322 338 
C 3322 166 3046 166 2925 166 
L 2925 0 
C 3110 12 3443 12 3642 12 
C 3808 12 4128 12 4282 0 
L 4282 166 
C 3942 166 3827 166 3744 402 
L 2323 4441 
z
M 2067 3924 
L 2848 1702 
L 1286 1702 
L 2067 3924 
z
" transform="scale(0.015625)"/>
       <path id="CMR17-76" d="M 2502 2173 
C 2560 2315 2662 2572 3034 2585 
L 3034 2752 
C 2912 2745 2752 2739 2630 2739 
C 2496 2739 2285 2739 2157 2752 
L 2157 2585 
C 2317 2572 2406 2495 2406 2328 
C 2406 2270 2406 2257 2368 2167 
L 1664 379 
L 902 2308 
C 864 2392 864 2405 864 2431 
C 864 2585 1075 2585 1171 2585 
L 1171 2752 
C 1018 2739 736 2739 576 2739 
C 403 2739 205 2739 64 2752 
L 64 2585 
C 307 2585 442 2585 518 2386 
L 1446 44 
C 1485 -52 1491 -64 1549 -64 
C 1606 -64 1613 -52 1651 44 
L 2502 2173 
z
" transform="scale(0.015625)"/>
       <path id="CMR17-65" d="M 2438 1503 
C 2464 1529 2464 1542 2464 1606 
C 2464 2251 2118 2816 1389 2816 
C 710 2816 173 2175 173 1394 
C 173 554 781 -64 1459 -64 
C 2176 -64 2458 619 2458 755 
C 2458 800 2419 800 2406 800 
C 2362 800 2355 787 2330 709 
C 2189 270 1837 51 1504 51 
C 1229 51 954 206 781 490 
C 582 819 582 1200 582 1503 
L 2438 1503 
z
M 589 1600 
C 634 2511 1126 2713 1382 2713 
C 1818 2713 2112 2308 2118 1600 
L 589 1600 
z
" transform="scale(0.015625)"/>
       <path id="CMR17-72" d="M 960 1517 
C 960 2134 1222 2713 1702 2713 
C 1747 2713 1792 2707 1837 2687 
C 1837 2687 1696 2642 1696 2475 
C 1696 2321 1818 2257 1914 2257 
C 1990 2257 2131 2302 2131 2482 
C 2131 2687 1926 2816 1709 2816 
C 1222 2816 1011 2340 947 2115 
L 941 2115 
L 941 2816 
L 198 2745 
L 198 2578 
C 576 2578 634 2540 634 2231 
L 634 443 
C 634 198 608 166 198 166 
L 198 0 
C 352 12 646 12 813 12 
C 998 12 1325 12 1498 0 
L 1498 166 
C 1037 166 960 166 960 455 
L 960 1517 
z
" transform="scale(0.015625)"/>
       <path id="CMR17-61" d="M 2304 1656 
C 2304 2048 2304 2275 2035 2534 
C 1798 2751 1523 2816 1306 2816 
C 800 2816 435 2408 435 1977 
C 435 1740 627 1728 666 1728 
C 749 1728 896 1779 896 1958 
C 896 2118 774 2188 666 2188 
C 640 2188 608 2182 589 2176 
C 723 2594 1069 2713 1293 2713 
C 1613 2713 1965 2421 1965 1875 
L 1965 1632 
C 1587 1619 1133 1568 774 1373 
C 371 1147 256 822 256 576 
C 256 77 832 -64 1171 -64 
C 1523 -64 1850 135 1990 505 
C 2003 219 2182 -39 2464 -39 
C 2598 -39 2938 51 2938 563 
L 2938 926 
L 2822 926 
L 2822 557 
C 2822 161 2650 109 2566 109 
C 2304 109 2304 446 2304 732 
L 2304 1656 
z
M 1965 887 
C 1965 323 1568 38 1216 38 
C 896 38 646 278 646 576 
C 646 771 730 1114 1101 1322 
C 1408 1497 1760 1523 1965 1536 
L 1965 887 
z
" transform="scale(0.015625)"/>
       <path id="CMR17-67" d="M 710 1165 
C 832 1068 1043 960 1299 960 
C 1805 960 2240 1359 2240 1895 
C 2240 2063 2189 2321 1997 2521 
C 2176 2713 2438 2777 2586 2777 
C 2611 2777 2650 2777 2682 2758 
C 2656 2751 2598 2726 2598 2623 
C 2598 2540 2656 2483 2739 2483 
C 2835 2483 2886 2547 2886 2630 
C 2886 2751 2790 2880 2586 2880 
C 2330 2880 2106 2758 1926 2591 
C 1734 2764 1504 2828 1299 2828 
C 794 2828 358 2431 358 1895 
C 358 1527 570 1294 634 1230 
C 442 1004 442 742 442 710 
C 442 544 506 300 723 166 
C 390 82 128 -184 128 -517 
C 128 -996 736 -1344 1466 -1344 
C 2170 -1344 2803 -1009 2803 -510 
C 2803 384 1856 384 1363 384 
C 1216 384 954 384 922 390 
C 723 422 589 601 589 825 
C 589 883 589 1024 710 1165 
z
M 1299 1068 
C 736 1068 736 1766 736 1895 
C 736 2024 736 2719 1299 2719 
C 1862 2719 1862 2024 1862 1895 
C 1862 1766 1862 1068 1299 1068 
z
M 1466 -1236 
C 826 -1236 384 -883 384 -517 
C 384 -311 493 -118 634 -11 
C 794 102 858 102 1293 102 
C 1818 102 2547 102 2547 -517 
C 2547 -883 2106 -1236 1466 -1236 
z
" transform="scale(0.015625)"/>
       <path id="CMR17-6c" d="M 979 4416 
L 218 4345 
L 218 4179 
C 595 4179 653 4141 653 3835 
L 653 439 
C 653 198 627 166 218 166 
L 218 0 
C 371 12 653 12 813 12 
C 979 12 1261 12 1414 0 
L 1414 166 
C 1005 166 979 191 979 439 
L 979 4416 
z
" transform="scale(0.015625)"/>
       <path id="CMR17-69" d="M 992 3961 
C 992 4102 877 4224 730 4224 
C 589 4224 467 4108 467 3961 
C 467 3820 582 3699 730 3699 
C 870 3699 992 3814 992 3961 
z
M 243 2745 
L 243 2579 
C 602 2579 653 2540 653 2231 
L 653 443 
C 653 198 627 166 218 166 
L 218 0 
C 371 12 646 12 806 12 
C 960 12 1222 12 1370 0 
L 1370 166 
C 992 166 979 205 979 436 
L 979 2816 
L 243 2745 
z
" transform="scale(0.015625)"/>
       <path id="CMR17-6e" d="M 2656 1954 
C 2656 2282 2592 2816 1837 2816 
C 1331 2816 1069 2424 973 2166 
L 966 2166 
L 966 2816 
L 211 2745 
L 211 2578 
C 589 2578 646 2540 646 2231 
L 646 443 
C 646 198 621 166 211 166 
L 211 0 
C 365 12 646 12 813 12 
C 979 12 1267 12 1421 0 
L 1421 166 
C 1011 166 986 192 986 443 
L 986 1678 
C 986 2269 1344 2713 1792 2713 
C 2266 2713 2317 2289 2317 1980 
L 2317 443 
C 2317 198 2291 166 1882 166 
L 1882 0 
C 2035 12 2317 12 2483 12 
C 2650 12 2938 12 3091 0 
L 3091 166 
C 2682 166 2656 192 2656 443 
L 2656 1954 
z
" transform="scale(0.015625)"/>
       <path id="CMR17-64" d="M 1869 4345 
L 1869 4179 
C 2246 4179 2304 4141 2304 3843 
L 2304 2371 
C 2278 2403 2016 2816 1498 2816 
C 845 2816 211 2228 211 1376 
C 211 529 806 -64 1434 -64 
C 1978 -64 2259 361 2291 406 
L 2291 -64 
L 3066 -13 
L 3066 154 
C 2688 154 2630 193 2630 503 
L 2630 4416 
L 1869 4345 
z
M 2291 762 
C 2291 568 2176 393 2029 264 
C 1811 70 1594 38 1472 38 
C 1286 38 621 135 621 1369 
C 621 2636 1363 2713 1530 2713 
C 1824 2713 2061 2545 2208 2313 
C 2291 2177 2291 2157 2291 2041 
L 2291 762 
z
" transform="scale(0.015625)"/>
      </defs>
      <use xlink:href="#CMR17-41" transform="scale(0.996264)"/>
      <use xlink:href="#CMR17-76" transform="translate(69.07243 0) scale(0.996264)"/>
      <use xlink:href="#CMR17-65" transform="translate(114.762892 0) scale(0.996264)"/>
      <use xlink:href="#CMR17-72" transform="translate(155.248552 0) scale(0.996264)"/>
      <use xlink:href="#CMR17-61" transform="translate(190.52932 0) scale(0.996264)"/>
      <use xlink:href="#CMR17-67" transform="translate(236.219797 0) scale(0.996264)"/>
      <use xlink:href="#CMR17-65" transform="translate(281.910274 0) scale(0.996264)"/>
      <use xlink:href="#CMR17-6c" transform="translate(352.471901 0) scale(0.996264)"/>
      <use xlink:href="#CMR17-69" transform="translate(377.34296 0) scale(0.996264)"/>
      <use xlink:href="#CMR17-67" transform="translate(402.214018 0) scale(0.996264)"/>
      <use xlink:href="#CMR17-61" transform="translate(447.904495 0) scale(0.996264)"/>
      <use xlink:href="#CMR17-6e" transform="translate(493.594972 0) scale(0.996264)"/>
      <use xlink:href="#CMR17-64" transform="translate(544.490342 0) scale(0.996264)"/>
     </g>
     <!-- completion time [h] -->
     <g transform="translate(53.435785 289.004033) rotate(-90) scale(0.3 -0.3)">
      <defs>
       <path id="CMR17-63" d="M 2234 2240 
C 2112 2240 1933 2240 1933 2015 
C 1933 1836 2080 1785 2163 1785 
C 2208 1785 2394 1804 2394 2028 
C 2394 2476 1958 2816 1466 2816 
C 787 2816 211 2201 211 1379 
C 211 521 813 -64 1466 -64 
C 2259 -64 2458 676 2458 747 
C 2458 773 2451 792 2406 792 
C 2362 792 2355 786 2330 702 
C 2163 180 1798 51 1523 51 
C 1114 51 621 431 621 1385 
C 621 2358 1094 2700 1472 2700 
C 1722 2700 2093 2582 2234 2240 
z
" transform="scale(0.015625)"/>
       <path id="CMR17-6f" d="M 2758 1356 
C 2758 2176 2163 2816 1466 2816 
C 768 2816 173 2176 173 1356 
C 173 550 768 -64 1466 -64 
C 2163 -64 2758 550 2758 1356 
z
M 1466 51 
C 1165 51 909 230 762 480 
C 602 768 582 1126 582 1408 
C 582 1676 595 2009 762 2297 
C 890 2508 1139 2713 1466 2713 
C 1754 2713 1997 2553 2150 2329 
C 2349 2028 2349 1606 2349 1408 
C 2349 1158 2336 774 2163 467 
C 1984 172 1709 51 1466 51 
z
" transform="scale(0.015625)"/>
       <path id="CMR17-6d" d="M 4326 1954 
C 4326 2276 4269 2816 3507 2816 
C 3072 2816 2771 2520 2656 2173 
L 2650 2173 
C 2573 2700 2195 2816 1837 2816 
C 1331 2816 1069 2424 973 2166 
L 966 2166 
L 966 2816 
L 211 2745 
L 211 2578 
C 589 2578 646 2540 646 2231 
L 646 443 
C 646 198 621 166 211 166 
L 211 0 
C 365 12 646 12 813 12 
C 979 12 1267 12 1421 0 
L 1421 166 
C 1011 166 986 192 986 443 
L 986 1678 
C 986 2269 1344 2713 1792 2713 
C 2266 2713 2317 2289 2317 1980 
L 2317 443 
C 2317 198 2291 166 1882 166 
L 1882 0 
C 2035 12 2317 12 2483 12 
C 2650 12 2938 12 3091 0 
L 3091 166 
C 2682 166 2656 192 2656 443 
L 2656 1678 
C 2656 2269 3014 2713 3462 2713 
C 3936 2713 3987 2289 3987 1980 
L 3987 443 
C 3987 198 3962 166 3552 166 
L 3552 0 
C 3706 12 3987 12 4154 12 
C 4320 12 4608 12 4762 0 
L 4762 166 
C 4352 166 4326 192 4326 443 
L 4326 1954 
z
" transform="scale(0.015625)"/>
       <path id="CMR17-70" d="M 1408 -1114 
C 998 -1114 973 -1088 973 -834 
L 973 380 
C 1158 109 1427 -64 1766 -64 
C 2406 -64 3053 503 3053 1382 
C 3053 2196 2496 2816 1837 2816 
C 1453 2816 1139 2603 960 2345 
L 960 2816 
L 198 2745 
L 198 2577 
C 576 2577 634 2539 634 2228 
L 634 -834 
C 634 -1081 608 -1114 198 -1114 
L 198 -1280 
C 352 -1268 634 -1268 800 -1268 
C 966 -1268 1254 -1268 1408 -1280 
L 1408 -1114 
z
M 973 2015 
C 973 2106 973 2241 1222 2481 
C 1254 2506 1472 2700 1792 2700 
C 2259 2700 2643 2112 2643 1376 
C 2643 639 2234 38 1728 38 
C 1498 38 1248 148 1056 451 
C 973 594 973 632 973 736 
L 973 2015 
z
" transform="scale(0.015625)"/>
       <path id="CMR17-74" d="M 966 2585 
L 1862 2585 
L 1862 2752 
L 966 2752 
L 966 3968 
L 851 3968 
C 838 3292 614 2700 70 2687 
L 70 2585 
L 627 2585 
L 627 778 
C 627 655 627 -64 1370 -64 
C 1747 -64 1965 308 1965 784 
L 1965 1151 
L 1850 1151 
L 1850 790 
C 1850 347 1677 51 1408 51 
C 1222 51 966 179 966 765 
L 966 2585 
z
" transform="scale(0.015625)"/>
       <path id="CMR17-5b" d="M 1504 -1600 
L 1504 -1376 
L 902 -1376 
L 902 4575 
L 1504 4575 
L 1504 4800 
L 678 4800 
L 678 -1600 
L 1504 -1600 
z
" transform="scale(0.015625)"/>
       <path id="CMR17-68" d="M 2656 1954 
C 2656 2282 2592 2816 1837 2816 
C 1312 2816 1056 2392 979 2179 
L 973 2179 
L 973 4416 
L 211 4345 
L 211 4179 
C 589 4179 646 4141 646 3843 
L 646 443 
C 646 198 621 166 211 166 
L 211 0 
C 365 12 646 12 813 12 
C 979 12 1267 12 1421 0 
L 1421 166 
C 1011 166 986 192 986 443 
L 986 1678 
C 986 2269 1344 2713 1792 2713 
C 2266 2713 2317 2289 2317 1980 
L 2317 443 
C 2317 198 2291 166 1882 166 
L 1882 0 
C 2035 12 2317 12 2483 12 
C 2650 12 2938 12 3091 0 
L 3091 166 
C 2682 166 2656 192 2656 443 
L 2656 1954 
z
" transform="scale(0.015625)"/>
       <path id="CMR17-5d" d="M 915 4800 
L 90 4800 
L 90 4575 
L 691 4575 
L 691 -1376 
L 90 -1376 
L 90 -1600 
L 915 -1600 
L 915 4800 
z
" transform="scale(0.015625)"/>
      </defs>
      <use xlink:href="#CMR17-63" transform="scale(0.996264)"/>
      <use xlink:href="#CMR17-6f" transform="translate(40.48566 0) scale(0.996264)"/>
      <use xlink:href="#CMR17-6d" transform="translate(86.176138 0) scale(0.996264)"/>
      <use xlink:href="#CMR17-70" transform="translate(163.095727 0) scale(0.996264)"/>
      <use xlink:href="#CMR17-6c" transform="translate(213.991097 0) scale(0.996264)"/>
      <use xlink:href="#CMR17-65" transform="translate(238.862156 0) scale(0.996264)"/>
      <use xlink:href="#CMR17-74" transform="translate(279.347816 0) scale(0.996264)"/>
      <use xlink:href="#CMR17-69" transform="translate(314.628584 0) scale(0.996264)"/>
      <use xlink:href="#CMR17-6f" transform="translate(339.499642 0) scale(0.996264)"/>
      <use xlink:href="#CMR17-6e" transform="translate(385.19012 0) scale(0.996264)"/>
      <use xlink:href="#CMR17-74" transform="translate(466.161456 0) scale(0.996264)"/>
      <use xlink:href="#CMR17-69" transform="translate(501.442223 0) scale(0.996264)"/>
      <use xlink:href="#CMR17-6d" transform="translate(526.313282 0) scale(0.996264)"/>
      <use xlink:href="#CMR17-65" transform="translate(603.232872 0) scale(0.996264)"/>
      <use xlink:href="#CMR17-5b" transform="translate(673.794499 0) scale(0.996264)"/>
      <use xlink:href="#CMR17-68" transform="translate(698.665557 0) scale(0.996264)"/>
      <use xlink:href="#CMR17-5d" transform="translate(749.560927 0) scale(0.996264)"/>
     </g>
    </g>
   </g>
   <g id="LineCollection_1">
    <path d="M 117.112629 28.633089 
L 117.112629 28.56774 
" clip-path="url(#pc7a48df5f3)" style="fill: none; stroke: #888888; stroke-opacity: 0.8; stroke-width: 3"/>
    <path d="M 137.136552 181.951031 
L 137.136552 181.498422 
" clip-path="url(#pc7a48df5f3)" style="fill: none; stroke: #888888; stroke-opacity: 0.8; stroke-width: 3"/>
    <path d="M 157.160476 233.31268 
L 157.160476 232.001316 
" clip-path="url(#pc7a48df5f3)" style="fill: none; stroke: #888888; stroke-opacity: 0.8; stroke-width: 3"/>
    <path d="M 177.184399 258.866616 
L 177.184399 257.616415 
" clip-path="url(#pc7a48df5f3)" style="fill: none; stroke: #888888; stroke-opacity: 0.8; stroke-width: 3"/>
    <path d="M 197.208323 274.289273 
L 197.208323 272.605867 
" clip-path="url(#pc7a48df5f3)" style="fill: none; stroke: #888888; stroke-opacity: 0.8; stroke-width: 3"/>
    <path d="M 217.232246 284.737785 
L 217.232246 282.539629 
" clip-path="url(#pc7a48df5f3)" style="fill: none; stroke: #888888; stroke-opacity: 0.8; stroke-width: 3"/>
    <path d="M 237.256169 292.069596 
L 237.256169 289.722624 
" clip-path="url(#pc7a48df5f3)" style="fill: none; stroke: #888888; stroke-opacity: 0.8; stroke-width: 3"/>
    <path d="M 257.280093 297.502185 
L 257.280093 295.297099 
" clip-path="url(#pc7a48df5f3)" style="fill: none; stroke: #888888; stroke-opacity: 0.8; stroke-width: 3"/>
    <path d="M 277.304016 301.609194 
L 277.304016 299.63814 
" clip-path="url(#pc7a48df5f3)" style="fill: none; stroke: #888888; stroke-opacity: 0.8; stroke-width: 3"/>
    <path d="M 297.32794 305.233461 
L 297.32794 302.766196 
" clip-path="url(#pc7a48df5f3)" style="fill: none; stroke: #888888; stroke-opacity: 0.8; stroke-width: 3"/>
    <path d="M 317.351863 307.836719 
L 317.351863 305.922814 
" clip-path="url(#pc7a48df5f3)" style="fill: none; stroke: #888888; stroke-opacity: 0.8; stroke-width: 3"/>
    <path d="M 337.375787 310.291624 
L 337.375787 307.925541 
" clip-path="url(#pc7a48df5f3)" style="fill: none; stroke: #888888; stroke-opacity: 0.8; stroke-width: 3"/>
    <path d="M 357.39971 312.336573 
L 357.39971 309.724607 
" clip-path="url(#pc7a48df5f3)" style="fill: none; stroke: #888888; stroke-opacity: 0.8; stroke-width: 3"/>
    <path d="M 377.423634 314.136214 
L 377.423634 311.255555 
" clip-path="url(#pc7a48df5f3)" style="fill: none; stroke: #888888; stroke-opacity: 0.8; stroke-width: 3"/>
    <path d="M 397.447557 315.27247 
L 397.447557 313.117295 
" clip-path="url(#pc7a48df5f3)" style="fill: none; stroke: #888888; stroke-opacity: 0.8; stroke-width: 3"/>
    <path d="M 417.47148 316.668071 
L 417.47148 314.244965 
" clip-path="url(#pc7a48df5f3)" style="fill: none; stroke: #888888; stroke-opacity: 0.8; stroke-width: 3"/>
    <path d="M 437.495404 317.858545 
L 437.495404 315.242713 
" clip-path="url(#pc7a48df5f3)" style="fill: none; stroke: #888888; stroke-opacity: 0.8; stroke-width: 3"/>
    <path d="M 457.519327 318.878609 
L 457.519327 316.228275 
" clip-path="url(#pc7a48df5f3)" style="fill: none; stroke: #888888; stroke-opacity: 0.8; stroke-width: 3"/>
    <path d="M 477.543251 319.815594 
L 477.543251 317.056252 
" clip-path="url(#pc7a48df5f3)" style="fill: none; stroke: #888888; stroke-opacity: 0.8; stroke-width: 3"/>
    <path d="M 497.567174 320.694487 
L 497.567174 317.780762 
" clip-path="url(#pc7a48df5f3)" style="fill: none; stroke: #888888; stroke-opacity: 0.8; stroke-width: 3"/>
   </g>
   <g id="line2d_25">
    <path d="M 117.112629 28.600414 
L 137.136552 181.724726 
L 157.160476 232.656998 
L 177.184399 258.241516 
L 197.208323 273.44757 
L 217.232246 283.638707 
L 237.256169 290.89611 
L 257.280093 296.399642 
L 277.304016 300.623667 
L 297.32794 303.999828 
L 317.351863 306.879767 
L 337.375787 309.108583 
L 357.39971 311.03059 
L 377.423634 312.695885 
L 397.447557 314.194883 
L 417.47148 315.456518 
L 437.495404 316.550629 
L 457.519327 317.553442 
L 477.543251 318.435923 
L 497.567174 319.237625 
" clip-path="url(#pc7a48df5f3)" style="fill: none; stroke-dasharray: 11.1,4.8; stroke-dashoffset: 0; stroke: #1f77b4; stroke-opacity: 0.8; stroke-width: 3"/>
    <defs>
     <path id="m2aa0298686" d="M 0 8 
C 2.121625 8 4.156639 7.15707 5.656854 5.656854 
C 7.15707 4.156639 8 2.121625 8 0 
C 8 -2.121625 7.15707 -4.156639 5.656854 -5.656854 
C 4.156639 -7.15707 2.121625 -8 0 -8 
C -2.121625 -8 -4.156639 -7.15707 -5.656854 -5.656854 
C -7.15707 -4.156639 -8 -2.121625 -8 0 
C -8 2.121625 -7.15707 4.156639 -5.656854 5.656854 
C -4.156639 7.15707 -2.121625 8 0 8 
z
" style="stroke: #0a0a0a; stroke-opacity: 0.8"/>
    </defs>
    <g clip-path="url(#pc7a48df5f3)">
     <use xlink:href="#m2aa0298686" x="117.112629" y="28.600414" style="fill: #00d1ff; fill-opacity: 0.8; stroke: #0a0a0a; stroke-opacity: 0.8"/>
     <use xlink:href="#m2aa0298686" x="137.136552" y="181.724726" style="fill: #00d1ff; fill-opacity: 0.8; stroke: #0a0a0a; stroke-opacity: 0.8"/>
     <use xlink:href="#m2aa0298686" x="157.160476" y="232.656998" style="fill: #00d1ff; fill-opacity: 0.8; stroke: #0a0a0a; stroke-opacity: 0.8"/>
     <use xlink:href="#m2aa0298686" x="177.184399" y="258.241516" style="fill: #00d1ff; fill-opacity: 0.8; stroke: #0a0a0a; stroke-opacity: 0.8"/>
     <use xlink:href="#m2aa0298686" x="197.208323" y="273.44757" style="fill: #00d1ff; fill-opacity: 0.8; stroke: #0a0a0a; stroke-opacity: 0.8"/>
     <use xlink:href="#m2aa0298686" x="217.232246" y="283.638707" style="fill: #00d1ff; fill-opacity: 0.8; stroke: #0a0a0a; stroke-opacity: 0.8"/>
     <use xlink:href="#m2aa0298686" x="237.256169" y="290.89611" style="fill: #00d1ff; fill-opacity: 0.8; stroke: #0a0a0a; stroke-opacity: 0.8"/>
     <use xlink:href="#m2aa0298686" x="257.280093" y="296.399642" style="fill: #00d1ff; fill-opacity: 0.8; stroke: #0a0a0a; stroke-opacity: 0.8"/>
     <use xlink:href="#m2aa0298686" x="277.304016" y="300.623667" style="fill: #00d1ff; fill-opacity: 0.8; stroke: #0a0a0a; stroke-opacity: 0.8"/>
     <use xlink:href="#m2aa0298686" x="297.32794" y="303.999828" style="fill: #00d1ff; fill-opacity: 0.8; stroke: #0a0a0a; stroke-opacity: 0.8"/>
     <use xlink:href="#m2aa0298686" x="317.351863" y="306.879767" style="fill: #00d1ff; fill-opacity: 0.8; stroke: #0a0a0a; stroke-opacity: 0.8"/>
     <use xlink:href="#m2aa0298686" x="337.375787" y="309.108583" style="fill: #00d1ff; fill-opacity: 0.8; stroke: #0a0a0a; stroke-opacity: 0.8"/>
     <use xlink:href="#m2aa0298686" x="357.39971" y="311.03059" style="fill: #00d1ff; fill-opacity: 0.8; stroke: #0a0a0a; stroke-opacity: 0.8"/>
     <use xlink:href="#m2aa0298686" x="377.423634" y="312.695885" style="fill: #00d1ff; fill-opacity: 0.8; stroke: #0a0a0a; stroke-opacity: 0.8"/>
     <use xlink:href="#m2aa0298686" x="397.447557" y="314.194883" style="fill: #00d1ff; fill-opacity: 0.8; stroke: #0a0a0a; stroke-opacity: 0.8"/>
     <use xlink:href="#m2aa0298686" x="417.47148" y="315.456518" style="fill: #00d1ff; fill-opacity: 0.8; stroke: #0a0a0a; stroke-opacity: 0.8"/>
     <use xlink:href="#m2aa0298686" x="437.495404" y="316.550629" style="fill: #00d1ff; fill-opacity: 0.8; stroke: #0a0a0a; stroke-opacity: 0.8"/>
     <use xlink:href="#m2aa0298686" x="457.519327" y="317.553442" style="fill: #00d1ff; fill-opacity: 0.8; stroke: #0a0a0a; stroke-opacity: 0.8"/>
     <use xlink:href="#m2aa0298686" x="477.543251" y="318.435923" style="fill: #00d1ff; fill-opacity: 0.8; stroke: #0a0a0a; stroke-opacity: 0.8"/>
     <use xlink:href="#m2aa0298686" x="497.567174" y="319.237625" style="fill: #00d1ff; fill-opacity: 0.8; stroke: #0a0a0a; stroke-opacity: 0.8"/>
    </g>
   </g>
   <g id="patch_3">
    <path d="M 98.089902 335.300824 
L 98.089902 10.377748 
" style="fill: none; stroke: #000000; stroke-width: 2; stroke-linejoin: miter; stroke-linecap: square"/>
   </g>
   <g id="patch_4">
    <path d="M 516.589902 335.300824 
L 516.589902 10.377748 
" style="fill: none; stroke: #000000; stroke-width: 2; stroke-linejoin: miter; stroke-linecap: square"/>
   </g>
   <g id="patch_5">
    <path d="M 98.089902 335.300824 
L 516.589902 335.300824 
" style="fill: none; stroke: #000000; stroke-width: 2; stroke-linejoin: miter; stroke-linecap: square"/>
   </g>
   <g id="patch_6">
    <path d="M 98.089902 10.377748 
L 516.589902 10.377748 
" style="fill: none; stroke: #000000; stroke-width: 2; stroke-linejoin: miter; stroke-linecap: square"/>
   </g>
   <g id="legend_1">
    <g id="patch_7">
     <path d="M 344.042969 76.191198 
L 495.589902 76.191198 
Q 501.589902 76.191198 501.589902 70.191198 
L 501.589902 31.377748 
Q 501.589902 25.377748 495.589902 25.377748 
L 344.042969 25.377748 
Q 338.042969 25.377748 338.042969 31.377748 
L 338.042969 70.191198 
Q 338.042969 76.191198 344.042969 76.191198 
z
" style="fill: #ffffff; opacity: 0.5; stroke: #808080; stroke-linejoin: miter"/>
    </g>
    <g id="LineCollection_2">
     <path d="M 380.042969 62.877748 
L 380.042969 32.877748 
" style="fill: none; stroke: #888888; stroke-opacity: 0.8; stroke-width: 3"/>
    </g>
    <g id="line2d_26">
     <path d="M 350.042969 47.877748 
L 410.042969 47.877748 
" style="fill: none; stroke-dasharray: 11.1,4.8; stroke-dashoffset: 0; stroke: #1f77b4; stroke-opacity: 0.8; stroke-width: 3"/>
    </g>
    <g id="line2d_27">
     <g>
      <use xlink:href="#m2aa0298686" x="380.042969" y="47.877748" style="fill: #00d1ff; fill-opacity: 0.8; stroke: #0a0a0a; stroke-opacity: 0.8"/>
     </g>
    </g>
    <g id="text_9">
     <!-- FEP -->
     <g transform="translate(434.042969 58.377748) scale(0.3 -0.3)">
      <defs>
       <path id="CMR17-46" d="M 3482 4339 
L 326 4339 
L 326 4172 
C 768 4172 838 4172 838 3883 
L 838 450 
C 838 166 768 166 326 166 
L 326 0 
C 512 12 870 12 1069 12 
C 1331 12 1638 12 1901 0 
L 1901 166 
L 1760 166 
C 1274 166 1261 229 1261 456 
L 1261 2073 
L 1837 2073 
C 2432 2073 2490 1865 2490 1334 
L 2605 1334 
L 2605 2991 
L 2490 2991 
C 2490 2451 2432 2240 1837 2240 
L 1261 2240 
L 1261 3922 
C 1261 4140 1274 4172 1530 4172 
L 2355 4172 
C 3322 4172 3430 3774 3520 2920 
L 3635 2920 
L 3482 4339 
z
" transform="scale(0.015625)"/>
       <path id="CMR17-45" d="M 3885 1614 
L 3770 1614 
C 3629 676 3546 166 2419 166 
L 1530 166 
C 1274 166 1261 198 1261 415 
L 1261 2176 
L 1862 2176 
C 2464 2176 2522 1959 2522 1429 
L 2637 1429 
L 2637 3086 
L 2522 3086 
C 2522 2558 2464 2342 1862 2342 
L 1261 2342 
L 1261 3924 
C 1261 4141 1274 4172 1530 4172 
L 2406 4172 
C 3398 4172 3514 3778 3603 2933 
L 3718 2933 
L 3565 4339 
L 326 4339 
L 326 4172 
C 768 4172 838 4172 838 3886 
L 838 453 
C 838 166 768 166 326 166 
L 326 0 
L 3654 0 
L 3885 1614 
z
" transform="scale(0.015625)"/>
       <path id="CMR17-50" d="M 1267 2048 
L 2291 2048 
C 3117 2048 3718 2583 3718 3187 
C 3718 3791 3130 4352 2291 4352 
L 333 4352 
L 333 4185 
C 774 4185 845 4185 845 3899 
L 845 453 
C 845 166 774 166 333 166 
L 333 0 
C 518 12 858 12 1056 12 
C 1254 12 1594 12 1779 0 
L 1779 166 
C 1338 166 1267 166 1267 453 
L 1267 2048 
z
M 1254 2182 
L 1254 3937 
C 1254 4153 1267 4185 1523 4185 
L 2170 4185 
C 2995 4185 3232 3715 3232 3187 
C 3232 2608 2950 2182 2170 2182 
L 1254 2182 
z
" transform="scale(0.015625)"/>
      </defs>
      <use xlink:href="#CMR17-46" transform="scale(0.996264)"/>
      <use xlink:href="#CMR17-45" transform="translate(59.983847 0) scale(0.996264)"/>
      <use xlink:href="#CMR17-50" transform="translate(122.570147 0) scale(0.996264)"/>
     </g>
    </g>
   </g>
  </g>
  <g id="axes_2">
   <g id="patch_8">
    <path d="M 98.089902 453.897748 
L 516.589902 453.897748 
L 516.589902 356.420824 
L 98.089902 356.420824 
z
" style="fill: #ffffff"/>
   </g>
   <g id="matplotlib.axis_3">
    <g id="xtick_6">
     <g id="line2d_28">
      <path d="M 117.112629 453.897748 
L 117.112629 356.420824 
" clip-path="url(#pbf846bca84)" style="fill: none; stroke-dasharray: 1.85,0.8; stroke-dashoffset: 0; stroke: #b0b0b0; stroke-opacity: 0.7; stroke-width: 0.5"/>
     </g>
     <g id="line2d_29">
      <g>
       <use xlink:href="#m71593f0a93" x="117.112629" y="453.897748" style="stroke: #000000; stroke-width: 2"/>
      </g>
     </g>
     <g id="text_10">
      <!-- $\mathdefault{10}$ -->
      <g transform="translate(103.405486 483.153243) scale(0.3 -0.3)">
       <use xlink:href="#CMR17-31" transform="scale(0.996264)"/>
       <use xlink:href="#CMR17-30" transform="translate(45.690477 0) scale(0.996264)"/>
      </g>
     </g>
    </g>
    <g id="xtick_7">
     <g id="line2d_30">
      <path d="M 197.208323 453.897748 
L 197.208323 356.420824 
" clip-path="url(#pbf846bca84)" style="fill: none; stroke-dasharray: 1.85,0.8; stroke-dashoffset: 0; stroke: #b0b0b0; stroke-opacity: 0.7; stroke-width: 0.5"/>
     </g>
     <g id="line2d_31">
      <g>
       <use xlink:href="#m71593f0a93" x="197.208323" y="453.897748" style="stroke: #000000; stroke-width: 2"/>
      </g>
     </g>
     <g id="text_11">
      <!-- $\mathdefault{50}$ -->
      <g transform="translate(183.501179 483.153243) scale(0.3 -0.3)">
       <use xlink:href="#CMR17-35" transform="scale(0.996264)"/>
       <use xlink:href="#CMR17-30" transform="translate(45.690477 0) scale(0.996264)"/>
      </g>
     </g>
    </g>
    <g id="xtick_8">
     <g id="line2d_32">
      <path d="M 297.32794 453.897748 
L 297.32794 356.420824 
" clip-path="url(#pbf846bca84)" style="fill: none; stroke-dasharray: 1.85,0.8; stroke-dashoffset: 0; stroke: #b0b0b0; stroke-opacity: 0.7; stroke-width: 0.5"/>
     </g>
     <g id="line2d_33">
      <g>
       <use xlink:href="#m71593f0a93" x="297.32794" y="453.897748" style="stroke: #000000; stroke-width: 2"/>
      </g>
     </g>
     <g id="text_12">
      <!-- $\mathdefault{100}$ -->
      <g transform="translate(276.767225 483.153243) scale(0.3 -0.3)">
       <use xlink:href="#CMR17-31" transform="scale(0.996264)"/>
       <use xlink:href="#CMR17-30" transform="translate(45.690477 0) scale(0.996264)"/>
       <use xlink:href="#CMR17-30" transform="translate(91.380954 0) scale(0.996264)"/>
      </g>
     </g>
    </g>
    <g id="xtick_9">
     <g id="line2d_34">
      <path d="M 397.447557 453.897748 
L 397.447557 356.420824 
" clip-path="url(#pbf846bca84)" style="fill: none; stroke-dasharray: 1.85,0.8; stroke-dashoffset: 0; stroke: #b0b0b0; stroke-opacity: 0.7; stroke-width: 0.5"/>
     </g>
     <g id="line2d_35">
      <g>
       <use xlink:href="#m71593f0a93" x="397.447557" y="453.897748" style="stroke: #000000; stroke-width: 2"/>
      </g>
     </g>
     <g id="text_13">
      <!-- $\mathdefault{150}$ -->
      <g transform="translate(376.886842 483.153243) scale(0.3 -0.3)">
       <use xlink:href="#CMR17-31" transform="scale(0.996264)"/>
       <use xlink:href="#CMR17-35" transform="translate(45.690477 0) scale(0.996264)"/>
       <use xlink:href="#CMR17-30" transform="translate(91.380954 0) scale(0.996264)"/>
      </g>
     </g>
    </g>
    <g id="xtick_10">
     <g id="line2d_36">
      <path d="M 497.567174 453.897748 
L 497.567174 356.420824 
" clip-path="url(#pbf846bca84)" style="fill: none; stroke-dasharray: 1.85,0.8; stroke-dashoffset: 0; stroke: #b0b0b0; stroke-opacity: 0.7; stroke-width: 0.5"/>
     </g>
     <g id="line2d_37">
      <g>
       <use xlink:href="#m71593f0a93" x="497.567174" y="453.897748" style="stroke: #000000; stroke-width: 2"/>
      </g>
     </g>
     <g id="text_14">
      <!-- $\mathdefault{200}$ -->
      <g transform="translate(477.00646 483.153243) scale(0.3 -0.3)">
       <use xlink:href="#CMR17-32" transform="scale(0.996264)"/>
       <use xlink:href="#CMR17-30" transform="translate(45.690477 0) scale(0.996264)"/>
       <use xlink:href="#CMR17-30" transform="translate(91.380954 0) scale(0.996264)"/>
      </g>
     </g>
    </g>
    <g id="text_15">
     <!-- Number of computers -->
     <g transform="translate(177.04994 519.722188) scale(0.3 -0.3)">
      <defs>
       <path id="CMR17-4e" d="M 1312 4275 
C 1267 4345 1261 4352 1139 4352 
L 326 4352 
L 326 4185 
L 448 4185 
C 704 4185 819 4153 838 4147 
L 838 624 
C 838 465 838 166 326 166 
L 326 0 
C 474 12 742 12 902 12 
C 1062 12 1331 12 1478 0 
L 1478 166 
C 966 166 966 465 966 624 
L 966 4057 
C 1011 4019 1011 4007 1056 3943 
L 3430 76 
C 3475 0 3494 0 3526 0 
C 3590 0 3590 19 3590 140 
L 3590 3726 
C 3590 3885 3590 4185 4102 4185 
L 4102 4352 
C 3955 4339 3686 4339 3526 4339 
C 3366 4339 3098 4339 2950 4352 
L 2950 4185 
C 3462 4185 3462 3885 3462 3726 
L 3462 777 
L 1312 4275 
z
" transform="scale(0.015625)"/>
       <path id="CMR17-75" d="M 1882 2745 
L 1882 2579 
C 2259 2579 2317 2540 2317 2229 
L 2317 1053 
C 2317 510 2029 38 1555 38 
C 1030 38 986 355 986 691 
L 986 2816 
L 211 2745 
L 211 2579 
C 467 2579 640 2579 646 2320 
L 646 1079 
C 646 646 646 368 813 187 
C 896 103 1056 -64 1517 -64 
C 2061 -64 2272 400 2323 536 
L 2330 536 
L 2330 -64 
L 3091 -13 
L 3091 154 
C 2714 154 2656 193 2656 503 
L 2656 2816 
L 1882 2745 
z
" transform="scale(0.015625)"/>
       <path id="CMR17-62" d="M 960 4416 
L 198 4345 
L 198 4179 
C 576 4179 634 4141 634 3843 
L 634 -13 
L 749 -13 
L 934 445 
C 1120 141 1395 -64 1766 -64 
C 2406 -64 3053 503 3053 1382 
C 3053 2209 2477 2816 1830 2816 
C 1434 2816 1152 2603 960 2351 
L 960 4416 
z
M 973 2022 
C 973 2138 973 2157 1062 2293 
C 1312 2681 1670 2713 1792 2713 
C 1984 2713 2643 2610 2643 1388 
C 2643 109 1888 38 1734 38 
C 1536 38 1248 115 1043 490 
C 973 613 973 626 973 742 
L 973 2022 
z
" transform="scale(0.015625)"/>
       <path id="CMR17-66" d="M 979 2585 
L 1709 2585 
L 1709 2752 
L 966 2752 
L 966 3539 
C 966 4076 1235 4377 1510 4377 
C 1594 4377 1690 4363 1754 4339 
C 1702 4326 1568 4281 1568 4121 
C 1568 3955 1696 3904 1786 3904 
C 1875 3904 2003 3955 2003 4121 
C 2003 4353 1773 4480 1517 4480 
C 1152 4480 653 4211 653 3526 
L 653 2752 
L 141 2752 
L 141 2585 
L 653 2585 
L 653 441 
C 653 198 627 166 218 166 
L 218 0 
C 371 12 666 12 832 12 
C 1018 12 1344 12 1517 0 
L 1517 166 
C 1056 166 979 166 979 454 
L 979 2585 
z
" transform="scale(0.015625)"/>
       <path id="CMR17-73" d="M 1978 2688 
C 1978 2803 1971 2809 1933 2809 
C 1907 2809 1901 2803 1824 2707 
C 1805 2681 1747 2617 1728 2592 
C 1523 2809 1235 2816 1126 2816 
C 416 2816 160 2444 160 2073 
C 160 1497 813 1363 998 1324 
C 1402 1241 1542 1216 1677 1100 
C 1760 1024 1901 883 1901 652 
C 1901 384 1747 38 1158 38 
C 602 38 403 460 288 1024 
C 269 1113 269 1120 218 1120 
C 166 1120 160 1113 160 985 
L 160 64 
C 160 -52 166 -58 205 -58 
C 237 -58 243 -52 275 0 
C 314 57 410 211 448 275 
C 576 102 800 -64 1158 -64 
C 1792 -64 2131 281 2131 780 
C 2131 1107 1958 1280 1875 1356 
C 1683 1555 1459 1600 1190 1651 
C 838 1728 390 1817 390 2208 
C 390 2374 480 2726 1126 2726 
C 1811 2726 1850 2086 1862 1881 
C 1869 1849 1901 1843 1920 1843 
C 1978 1843 1978 1862 1978 1971 
L 1978 2688 
z
" transform="scale(0.015625)"/>
      </defs>
      <use xlink:href="#CMR17-4e" transform="scale(0.996264)"/>
      <use xlink:href="#CMR17-75" transform="translate(69.07243 0) scale(0.996264)"/>
      <use xlink:href="#CMR17-6d" transform="translate(119.9678 0) scale(0.996264)"/>
      <use xlink:href="#CMR17-62" transform="translate(194.284936 0) scale(0.996264)"/>
      <use xlink:href="#CMR17-65" transform="translate(247.782744 0) scale(0.996264)"/>
      <use xlink:href="#CMR17-72" transform="translate(288.268404 0) scale(0.996264)"/>
      <use xlink:href="#CMR17-6f" transform="translate(353.625139 0) scale(0.996264)"/>
      <use xlink:href="#CMR17-66" transform="translate(399.315616 0) scale(0.996264)"/>
      <use xlink:href="#CMR17-63" transform="translate(456.865095 0) scale(0.996264)"/>
      <use xlink:href="#CMR17-6f" transform="translate(497.350755 0) scale(0.996264)"/>
      <use xlink:href="#CMR17-6d" transform="translate(543.041232 0) scale(0.996264)"/>
      <use xlink:href="#CMR17-70" transform="translate(619.960822 0) scale(0.996264)"/>
      <use xlink:href="#CMR17-75" transform="translate(670.856192 0) scale(0.996264)"/>
      <use xlink:href="#CMR17-74" transform="translate(721.751562 0) scale(0.996264)"/>
      <use xlink:href="#CMR17-65" transform="translate(757.032329 0) scale(0.996264)"/>
      <use xlink:href="#CMR17-72" transform="translate(797.51799 0) scale(0.996264)"/>
      <use xlink:href="#CMR17-73" transform="translate(832.798758 0) scale(0.996264)"/>
     </g>
    </g>
   </g>
   <g id="matplotlib.axis_4">
    <g id="ytick_8">
     <g id="line2d_38">
      <path d="M 98.089902 425.094317 
L 516.589902 425.094317 
" clip-path="url(#pbf846bca84)" style="fill: none; stroke-dasharray: 1.85,0.8; stroke-dashoffset: 0; stroke: #b0b0b0; stroke-opacity: 0.7; stroke-width: 0.5"/>
     </g>
     <g id="line2d_39">
      <g>
       <use xlink:href="#m1d92816356" x="98.089902" y="425.094317" style="stroke: #000000; stroke-width: 2"/>
      </g>
     </g>
     <g id="text_16">
      <!-- $\mathdefault{50}$ -->
      <g transform="translate(62.175615 435.472065) scale(0.3 -0.3)">
       <use xlink:href="#CMR17-35" transform="scale(0.996264)"/>
       <use xlink:href="#CMR17-30" transform="translate(45.690477 0) scale(0.996264)"/>
      </g>
     </g>
    </g>
    <g id="ytick_9">
     <g id="line2d_40">
      <path d="M 98.089902 370.789868 
L 516.589902 370.789868 
" clip-path="url(#pbf846bca84)" style="fill: none; stroke-dasharray: 1.85,0.8; stroke-dashoffset: 0; stroke: #b0b0b0; stroke-opacity: 0.7; stroke-width: 0.5"/>
     </g>
     <g id="line2d_41">
      <g>
       <use xlink:href="#m1d92816356" x="98.089902" y="370.789868" style="stroke: #000000; stroke-width: 2"/>
      </g>
     </g>
     <g id="text_17">
      <!-- $\mathdefault{100}$ -->
      <g transform="translate(48.468472 381.167616) scale(0.3 -0.3)">
       <use xlink:href="#CMR17-31" transform="scale(0.996264)"/>
       <use xlink:href="#CMR17-30" transform="translate(45.690477 0) scale(0.996264)"/>
       <use xlink:href="#CMR17-30" transform="translate(91.380954 0) scale(0.996264)"/>
      </g>
     </g>
    </g>
    <g id="text_18">
     <!-- Rate -->
     <g transform="translate(27.655022 433.546479) rotate(-90) scale(0.3 -0.3)">
      <defs>
       <path id="CMR17-52" d="M 2509 2156 
C 3117 2278 3629 2689 3629 3203 
C 3629 3806 2950 4352 2054 4352 
L 333 4352 
L 333 4185 
C 774 4185 845 4185 845 3896 
L 845 428 
C 845 140 774 140 333 140 
L 333 -26 
C 518 -13 851 -13 1050 -13 
C 1248 -13 1581 -13 1766 -26 
L 1766 140 
C 1325 140 1254 140 1254 428 
L 1254 2112 
L 2003 2112 
C 2368 2112 2573 1964 2662 1881 
C 2918 1632 2918 1459 2918 1024 
C 2918 595 2918 377 3110 160 
C 3354 -103 3680 -128 3821 -128 
C 4294 -128 4365 403 4365 512 
C 4365 550 4365 595 4307 595 
C 4256 595 4250 556 4250 531 
C 4218 115 4032 -26 3834 -26 
C 3482 -26 3443 377 3405 768 
C 3386 902 3373 998 3360 1139 
C 3322 1459 3270 1926 2509 2156 
z
M 1984 2214 
L 1254 2214 
L 1254 3935 
C 1254 4153 1267 4185 1523 4185 
L 1990 4185 
C 2522 4185 3142 3999 3142 3203 
C 3142 2374 2464 2214 1984 2214 
z
" transform="scale(0.015625)"/>
      </defs>
      <use xlink:href="#CMR17-52" transform="scale(0.996264)"/>
      <use xlink:href="#CMR17-61" transform="translate(67.791102 0) scale(0.996264)"/>
      <use xlink:href="#CMR17-74" transform="translate(113.481579 0) scale(0.996264)"/>
      <use xlink:href="#CMR17-65" transform="translate(148.762347 0) scale(0.996264)"/>
     </g>
    </g>
   </g>
   <g id="LineCollection_3">
    <path d="M 117.112629 394.491172 
L 117.112629 394.473054 
" clip-path="url(#pbf846bca84)" style="fill: none; stroke: #888888; stroke-opacity: 0.8; stroke-width: 3"/>
    <path d="M 137.136552 397.252984 
L 137.136552 392.261342 
" clip-path="url(#pbf846bca84)" style="fill: none; stroke: #888888; stroke-opacity: 0.8; stroke-width: 3"/>
    <path d="M 157.160476 400.593838 
L 157.160476 389.729397 
" clip-path="url(#pbf846bca84)" style="fill: none; stroke: #888888; stroke-opacity: 0.8; stroke-width: 3"/>
    <path d="M 177.184399 403.305242 
L 177.184399 387.845082 
" clip-path="url(#pbf846bca84)" style="fill: none; stroke: #888888; stroke-opacity: 0.8; stroke-width: 3"/>
    <path d="M 197.208323 406.389865 
L 197.208323 385.607643 
" clip-path="url(#pbf846bca84)" style="fill: none; stroke: #888888; stroke-opacity: 0.8; stroke-width: 3"/>
    <path d="M 217.232246 410.816094 
L 217.232246 382.521192 
" clip-path="url(#pbf846bca84)" style="fill: none; stroke: #888888; stroke-opacity: 0.8; stroke-width: 3"/>
    <path d="M 237.256169 413.206524 
L 237.256169 381.19663 
" clip-path="url(#pbf846bca84)" style="fill: none; stroke: #888888; stroke-opacity: 0.8; stroke-width: 3"/>
    <path d="M 257.280093 416.901386 
L 257.280093 378.689447 
" clip-path="url(#pbf846bca84)" style="fill: none; stroke: #888888; stroke-opacity: 0.8; stroke-width: 3"/>
    <path d="M 277.304016 420.892923 
L 277.304016 376.27928 
" clip-path="url(#pbf846bca84)" style="fill: none; stroke: #888888; stroke-opacity: 0.8; stroke-width: 3"/>
    <path d="M 297.32794 421.658118 
L 297.32794 375.716659 
" clip-path="url(#pbf846bca84)" style="fill: none; stroke: #888888; stroke-opacity: 0.8; stroke-width: 3"/>
    <path d="M 317.351863 425.661486 
L 317.351863 374.249334 
" clip-path="url(#pbf846bca84)" style="fill: none; stroke: #888888; stroke-opacity: 0.8; stroke-width: 3"/>
    <path d="M 337.375787 428.821177 
L 337.375787 371.748857 
" clip-path="url(#pbf846bca84)" style="fill: none; stroke: #888888; stroke-opacity: 0.8; stroke-width: 3"/>
    <path d="M 357.39971 432.327605 
L 357.39971 369.747329 
" clip-path="url(#pbf846bca84)" style="fill: none; stroke: #888888; stroke-opacity: 0.8; stroke-width: 3"/>
    <path d="M 377.423634 434.952182 
L 377.423634 368.13774 
" clip-path="url(#pbf846bca84)" style="fill: none; stroke: #888888; stroke-opacity: 0.8; stroke-width: 3"/>
    <path d="M 397.447557 437.769001 
L 397.447557 366.821662 
" clip-path="url(#pbf846bca84)" style="fill: none; stroke: #888888; stroke-opacity: 0.8; stroke-width: 3"/>
    <path d="M 417.47148 440.814928 
L 417.47148 365.111861 
" clip-path="url(#pbf846bca84)" style="fill: none; stroke: #888888; stroke-opacity: 0.8; stroke-width: 3"/>
    <path d="M 437.495404 443.768103 
L 437.495404 363.59944 
" clip-path="url(#pbf846bca84)" style="fill: none; stroke: #888888; stroke-opacity: 0.8; stroke-width: 3"/>
    <path d="M 457.519327 446.636879 
L 457.519327 362.139917 
" clip-path="url(#pbf846bca84)" style="fill: none; stroke: #888888; stroke-opacity: 0.8; stroke-width: 3"/>
    <path d="M 477.543251 449.466978 
L 477.543251 360.851594 
" clip-path="url(#pbf846bca84)" style="fill: none; stroke: #888888; stroke-opacity: 0.8; stroke-width: 3"/>
    <path d="M 497.567174 447.159522 
L 497.567174 362.066266 
" clip-path="url(#pbf846bca84)" style="fill: none; stroke: #888888; stroke-opacity: 0.8; stroke-width: 3"/>
   </g>
   <g id="line2d_42">
    <path d="M 117.112629 394.482113 
L 137.136552 394.757163 
L 157.160476 395.161618 
L 177.184399 395.575162 
L 197.208323 395.998754 
L 217.232246 396.668643 
L 237.256169 397.201577 
L 257.280093 397.795416 
L 277.304016 398.586102 
L 297.32794 398.687389 
L 317.351863 399.95541 
L 337.375787 400.285017 
L 357.39971 401.037467 
L 377.423634 401.544961 
L 397.447557 402.295332 
L 417.47148 402.963394 
L 437.495404 403.683772 
L 457.519327 404.388398 
L 477.543251 405.159286 
L 497.567174 404.612894 
" clip-path="url(#pbf846bca84)" style="fill: none; stroke-dasharray: 11.1,4.8; stroke-dashoffset: 0; stroke: #50225b; stroke-opacity: 0.8; stroke-width: 3"/>
    <defs>
     <path id="mc0526f2ea9" d="M 0 6 
C 1.591219 6 3.117479 5.367802 4.242641 4.242641 
C 5.367802 3.117479 6 1.591219 6 0 
C 6 -1.591219 5.367802 -3.117479 4.242641 -4.242641 
C 3.117479 -5.367802 1.591219 -6 0 -6 
C -1.591219 -6 -3.117479 -5.367802 -4.242641 -4.242641 
C -5.367802 -3.117479 -6 -1.591219 -6 0 
C -6 1.591219 -5.367802 3.117479 -4.242641 4.242641 
C -3.117479 5.367802 -1.591219 6 0 6 
z
" style="stroke: #0a0a0a; stroke-opacity: 0.8"/>
    </defs>
    <g clip-path="url(#pbf846bca84)">
     <use xlink:href="#mc0526f2ea9" x="117.112629" y="394.482113" style="fill: #50225b; fill-opacity: 0.8; stroke: #0a0a0a; stroke-opacity: 0.8"/>
     <use xlink:href="#mc0526f2ea9" x="137.136552" y="394.757163" style="fill: #50225b; fill-opacity: 0.8; stroke: #0a0a0a; stroke-opacity: 0.8"/>
     <use xlink:href="#mc0526f2ea9" x="157.160476" y="395.161618" style="fill: #50225b; fill-opacity: 0.8; stroke: #0a0a0a; stroke-opacity: 0.8"/>
     <use xlink:href="#mc0526f2ea9" x="177.184399" y="395.575162" style="fill: #50225b; fill-opacity: 0.8; stroke: #0a0a0a; stroke-opacity: 0.8"/>
     <use xlink:href="#mc0526f2ea9" x="197.208323" y="395.998754" style="fill: #50225b; fill-opacity: 0.8; stroke: #0a0a0a; stroke-opacity: 0.8"/>
     <use xlink:href="#mc0526f2ea9" x="217.232246" y="396.668643" style="fill: #50225b; fill-opacity: 0.8; stroke: #0a0a0a; stroke-opacity: 0.8"/>
     <use xlink:href="#mc0526f2ea9" x="237.256169" y="397.201577" style="fill: #50225b; fill-opacity: 0.8; stroke: #0a0a0a; stroke-opacity: 0.8"/>
     <use xlink:href="#mc0526f2ea9" x="257.280093" y="397.795416" style="fill: #50225b; fill-opacity: 0.8; stroke: #0a0a0a; stroke-opacity: 0.8"/>
     <use xlink:href="#mc0526f2ea9" x="277.304016" y="398.586102" style="fill: #50225b; fill-opacity: 0.8; stroke: #0a0a0a; stroke-opacity: 0.8"/>
     <use xlink:href="#mc0526f2ea9" x="297.32794" y="398.687389" style="fill: #50225b; fill-opacity: 0.8; stroke: #0a0a0a; stroke-opacity: 0.8"/>
     <use xlink:href="#mc0526f2ea9" x="317.351863" y="399.95541" style="fill: #50225b; fill-opacity: 0.8; stroke: #0a0a0a; stroke-opacity: 0.8"/>
     <use xlink:href="#mc0526f2ea9" x="337.375787" y="400.285017" style="fill: #50225b; fill-opacity: 0.8; stroke: #0a0a0a; stroke-opacity: 0.8"/>
     <use xlink:href="#mc0526f2ea9" x="357.39971" y="401.037467" style="fill: #50225b; fill-opacity: 0.8; stroke: #0a0a0a; stroke-opacity: 0.8"/>
     <use xlink:href="#mc0526f2ea9" x="377.423634" y="401.544961" style="fill: #50225b; fill-opacity: 0.8; stroke: #0a0a0a; stroke-opacity: 0.8"/>
     <use xlink:href="#mc0526f2ea9" x="397.447557" y="402.295332" style="fill: #50225b; fill-opacity: 0.8; stroke: #0a0a0a; stroke-opacity: 0.8"/>
     <use xlink:href="#mc0526f2ea9" x="417.47148" y="402.963394" style="fill: #50225b; fill-opacity: 0.8; stroke: #0a0a0a; stroke-opacity: 0.8"/>
     <use xlink:href="#mc0526f2ea9" x="437.495404" y="403.683772" style="fill: #50225b; fill-opacity: 0.8; stroke: #0a0a0a; stroke-opacity: 0.8"/>
     <use xlink:href="#mc0526f2ea9" x="457.519327" y="404.388398" style="fill: #50225b; fill-opacity: 0.8; stroke: #0a0a0a; stroke-opacity: 0.8"/>
     <use xlink:href="#mc0526f2ea9" x="477.543251" y="405.159286" style="fill: #50225b; fill-opacity: 0.8; stroke: #0a0a0a; stroke-opacity: 0.8"/>
     <use xlink:href="#mc0526f2ea9" x="497.567174" y="404.612894" style="fill: #50225b; fill-opacity: 0.8; stroke: #0a0a0a; stroke-opacity: 0.8"/>
    </g>
   </g>
   <g id="patch_9">
    <path d="M 98.089902 453.897748 
L 98.089902 356.420824 
" style="fill: none; stroke: #000000; stroke-width: 2; stroke-linejoin: miter; stroke-linecap: square"/>
   </g>
   <g id="patch_10">
    <path d="M 516.589902 453.897748 
L 516.589902 356.420824 
" style="fill: none; stroke: #000000; stroke-width: 2; stroke-linejoin: miter; stroke-linecap: square"/>
   </g>
   <g id="patch_11">
    <path d="M 98.089902 453.897748 
L 516.589902 453.897748 
" style="fill: none; stroke: #000000; stroke-width: 2; stroke-linejoin: miter; stroke-linecap: square"/>
   </g>
   <g id="patch_12">
    <path d="M 98.089902 356.420824 
L 516.589902 356.420824 
" style="fill: none; stroke: #000000; stroke-width: 2; stroke-linejoin: miter; stroke-linecap: square"/>
   </g>
   <g id="legend_2">
    <g id="patch_13">
     <path d="M 108.589902 390.864785 
L 295.266428 390.864785 
Q 298.266428 390.864785 298.266428 387.864785 
L 298.266428 366.920824 
Q 298.266428 363.920824 295.266428 363.920824 
L 108.589902 363.920824 
Q 105.589902 363.920824 105.589902 366.920824 
L 105.589902 387.864785 
Q 105.589902 390.864785 108.589902 390.864785 
z
" style="fill: #ffffff; opacity: 0.5; stroke: #808080; stroke-linejoin: miter"/>
    </g>
    <g id="LineCollection_4">
     <path d="M 126.589902 383.378795 
L 126.589902 368.378795 
" style="fill: none; stroke: #888888; stroke-opacity: 0.8; stroke-width: 3"/>
    </g>
    <g id="line2d_43">
     <path d="M 111.589902 375.878795 
L 141.589902 375.878795 
" style="fill: none; stroke-dasharray: 11.1,4.8; stroke-dashoffset: 0; stroke: #50225b; stroke-opacity: 0.8; stroke-width: 3"/>
    </g>
    <g id="line2d_44">
     <g>
      <use xlink:href="#mc0526f2ea9" x="126.589902" y="375.878795" style="fill: #50225b; fill-opacity: 0.8; stroke: #0a0a0a; stroke-opacity: 0.8"/>
     </g>
    </g>
    <g id="text_19">
     <!-- t(FEP)/t(MMGBSA) -->
     <g transform="translate(153.589902 381.128795) scale(0.15 -0.15)">
      <defs>
       <path id="CMR17-28" d="M 1958 -1562 
C 1958 -1556 1958 -1543 1939 -1524 
C 1645 -1223 858 -403 858 1596 
C 858 3595 1632 4408 1946 4729 
C 1946 4735 1958 4748 1958 4767 
C 1958 4787 1939 4800 1914 4800 
C 1843 4800 1299 4325 986 3620 
C 666 2909 576 2218 576 1603 
C 576 1141 621 360 1005 -467 
C 1312 -1133 1837 -1600 1914 -1600 
C 1946 -1600 1958 -1588 1958 -1562 
z
" transform="scale(0.015625)"/>
       <path id="CMR17-29" d="M 1683 1596 
C 1683 2057 1638 2839 1254 3665 
C 947 4332 422 4800 346 4800 
C 326 4800 301 4793 301 4761 
C 301 4748 307 4742 314 4729 
C 621 4408 1402 3595 1402 1603 
C 1402 -396 627 -1210 314 -1530 
C 307 -1543 301 -1549 301 -1562 
C 301 -1594 326 -1600 346 -1600 
C 416 -1600 960 -1127 1274 -422 
C 1594 289 1683 981 1683 1596 
z
" transform="scale(0.015625)"/>
       <path id="CMR17-2f" d="M 2605 4575 
C 2637 4658 2637 4671 2637 4684 
C 2637 4761 2579 4800 2528 4800 
C 2451 4800 2426 4748 2400 4671 
L 326 -1376 
C 294 -1460 294 -1472 294 -1485 
C 294 -1562 352 -1600 403 -1600 
C 480 -1600 506 -1549 531 -1472 
L 2605 4575 
z
" transform="scale(0.015625)"/>
       <path id="CMR17-4d" d="M 1338 4249 
C 1299 4345 1293 4352 1158 4352 
L 339 4352 
L 339 4185 
C 781 4185 851 4185 851 3898 
L 851 624 
C 851 465 851 166 339 166 
L 339 0 
C 486 12 755 12 915 12 
C 1075 12 1344 12 1491 0 
L 1491 166 
C 979 166 979 465 979 624 
L 979 4159 
L 986 4159 
L 2490 102 
C 2515 38 2528 0 2579 0 
C 2630 0 2643 38 2669 102 
L 4186 4191 
L 4192 4191 
L 4192 453 
C 4192 166 4122 166 3680 166 
L 3680 0 
C 3853 12 4198 12 4384 12 
C 4570 12 4922 12 5094 0 
L 5094 166 
C 4653 166 4582 166 4582 453 
L 4582 3898 
C 4582 4185 4653 4185 5094 4185 
L 5094 4352 
L 4282 4352 
C 4147 4352 4141 4345 4102 4249 
L 2720 516 
L 1338 4249 
z
" transform="scale(0.015625)"/>
       <path id="CMR17-47" d="M 3974 1258 
C 3974 1503 3994 1536 4390 1536 
L 4390 1702 
C 4237 1689 3891 1689 3718 1689 
C 3539 1689 3040 1696 2797 1702 
L 2797 1536 
L 2989 1536 
C 3539 1536 3552 1464 3552 1232 
L 3552 806 
C 3552 96 2720 38 2522 38 
C 1862 38 781 496 781 2179 
C 781 3862 1843 4313 2464 4313 
C 3187 4313 3712 3681 3834 2785 
C 3846 2708 3846 2695 3904 2695 
C 3974 2695 3974 2708 3974 2824 
L 3974 4351 
C 3974 4467 3968 4473 3930 4473 
C 3904 4473 3898 4467 3853 4390 
L 3571 3849 
C 3258 4249 2874 4480 2381 4480 
C 1286 4480 294 3507 294 2179 
C 294 858 1267 -128 2394 -128 
C 2912 -128 3418 57 3616 425 
C 3725 161 3904 -20 3936 -20 
C 3968 -20 3974 -13 3974 102 
L 3974 1258 
z
" transform="scale(0.015625)"/>
       <path id="CMR17-42" d="M 333 4352 
L 333 4185 
C 774 4185 845 4185 845 3897 
L 845 451 
C 845 166 774 166 333 166 
L 333 0 
L 2534 0 
C 3354 0 3885 578 3885 1155 
C 3885 1726 3360 2214 2675 2259 
C 3290 2380 3718 2790 3718 3276 
C 3718 3808 3194 4352 2368 4352 
L 333 4352 
z
M 1248 2304 
L 1248 3936 
C 1248 4153 1261 4185 1517 4185 
L 2336 4185 
C 2970 4185 3251 3673 3251 3276 
C 3251 2790 2861 2304 2170 2304 
L 1248 2304 
z
M 1517 166 
C 1261 166 1248 198 1248 413 
L 1248 2201 
L 2432 2201 
C 3091 2201 3411 1624 3411 1161 
C 3411 698 3046 166 2349 166 
L 1517 166 
z
" transform="scale(0.015625)"/>
       <path id="CMR17-53" d="M 2803 4351 
C 2803 4467 2797 4473 2758 4473 
C 2720 4473 2707 4447 2682 4390 
L 2490 3965 
C 2246 4320 1875 4480 1472 4480 
C 819 4480 294 3958 294 3301 
C 294 3101 339 2817 557 2546 
C 794 2250 1018 2198 1530 2063 
C 1722 2011 2042 1927 2106 1901 
C 2470 1747 2662 1360 2662 999 
C 2662 534 2336 38 1779 38 
C 1094 38 454 425 410 1328 
C 403 1431 397 1437 352 1437 
C 301 1437 294 1431 294 1302 
L 294 0 
C 294 -116 301 -122 339 -122 
C 384 -122 397 -90 486 109 
C 493 128 493 141 614 386 
C 934 -39 1472 -128 1779 -128 
C 2477 -128 2970 457 2970 1141 
C 2970 1476 2848 1734 2778 1850 
C 2509 2263 2221 2340 1914 2417 
C 1869 2437 1856 2437 1498 2527 
C 1152 2617 1005 2662 845 2836 
C 666 3036 602 3243 602 3449 
C 602 3868 934 4326 1478 4326 
C 2157 4326 2579 3842 2675 3036 
C 2694 2920 2701 2914 2746 2914 
C 2803 2914 2803 2933 2803 3043 
L 2803 4351 
z
" transform="scale(0.015625)"/>
      </defs>
      <use xlink:href="#CMR17-74" transform="scale(0.996264)"/>
      <use xlink:href="#CMR17-28" transform="translate(35.280768 0) scale(0.996264)"/>
      <use xlink:href="#CMR17-46" transform="translate(70.561536 0) scale(0.996264)"/>
      <use xlink:href="#CMR17-45" transform="translate(130.545382 0) scale(0.996264)"/>
      <use xlink:href="#CMR17-50" transform="translate(193.131683 0) scale(0.996264)"/>
      <use xlink:href="#CMR17-29" transform="translate(255.717983 0) scale(0.996264)"/>
      <use xlink:href="#CMR17-2f" transform="translate(290.998751 0) scale(0.996264)"/>
      <use xlink:href="#CMR17-74" transform="translate(336.689228 0) scale(0.996264)"/>
      <use xlink:href="#CMR17-28" transform="translate(371.969996 0) scale(0.996264)"/>
      <use xlink:href="#CMR17-4d" transform="translate(407.250764 0) scale(0.996264)"/>
      <use xlink:href="#CMR17-4d" transform="translate(491.937704 0) scale(0.996264)"/>
      <use xlink:href="#CMR17-47" transform="translate(576.624645 0) scale(0.996264)"/>
      <use xlink:href="#CMR17-42" transform="translate(648.979991 0) scale(0.996264)"/>
      <use xlink:href="#CMR17-53" transform="translate(714.168745 0) scale(0.996264)"/>
      <use xlink:href="#CMR17-41" transform="translate(765.064115 0) scale(0.996264)"/>
      <use xlink:href="#CMR17-29" transform="translate(834.136545 0) scale(0.996264)"/>
     </g>
    </g>
   </g>
  </g>
 </g>
 <defs>
  <clipPath id="pc7a48df5f3">
   <rect x="98.089902" y="10.377748" width="418.5" height="324.923077"/>
  </clipPath>
  <clipPath id="pbf846bca84">
   <rect x="98.089902" y="356.420824" width="418.5" height="97.476923"/>
  </clipPath>
 </defs>
</svg>
