<?xml version="1.0" encoding="UTF-8" standalone="no"?>
<!-- Created with Inkscape (http://www.inkscape.org/) -->

<svg
   width="110.10661mm"
   height="110.36404mm"
   viewBox="0 0 110.10661 110.36403"
   version="1.1"
   id="svg1"
   xmlns:xlink="http://www.w3.org/1999/xlink"
   xmlns="http://www.w3.org/2000/svg"
   xmlns:svg="http://www.w3.org/2000/svg">
  <defs
     id="defs1">
    <linearGradient
       id="linearGradient21">
      <stop
         style="stop-color:#000080;stop-opacity:1;"
         offset="0"
         id="stop22" />
      <stop
         style="stop-color:#44a866;stop-opacity:0.99520385;"
         offset="1"
         id="stop23" />
    </linearGradient>
    <linearGradient
       id="linearGradient9">
      <stop
         style="stop-color:#ff0000;stop-opacity:1;"
         offset="0"
         id="stop8" />
      <stop
         style="stop-color:#019d00;stop-opacity:1;"
         offset="1"
         id="stop9" />
    </linearGradient>
    <linearGradient
       id="linearGradient4">
      <stop
         style="stop-color:#000080;stop-opacity:1;"
         offset="0"
         id="stop3" />
      <stop
         style="stop-color:#a50080;stop-opacity:1;"
         offset="1"
         id="stop4" />
    </linearGradient>
    <linearGradient
       id="linearGradient1">
      <stop
         style="stop-color:#000080;stop-opacity:1;"
         offset="0"
         id="stop1" />
      <stop
         style="stop-color:#e20080;stop-opacity:1;"
         offset="1"
         id="stop2" />
    </linearGradient>
    <linearGradient
       xlink:href="#linearGradient4"
       id="linearGradient3"
       x1="111.93985"
       y1="116.40783"
       x2="148.81401"
       y2="116.40783"
       gradientUnits="userSpaceOnUse" />
    <linearGradient
       xlink:href="#linearGradient1"
       id="linearGradient5"
       gradientUnits="userSpaceOnUse"
       x1="38.107082"
       y1="116.87506"
       x2="112.13251"
       y2="116.87506" />
    <linearGradient
       xlink:href="#linearGradient9"
       id="linearGradient8"
       x1="121.81715"
       y1="0.43170619"
       x2="153.66194"
       y2="0.43170619"
       gradientUnits="userSpaceOnUse" />
    <linearGradient
       xlink:href="#linearGradient21"
       id="linearGradient23"
       x1="117.37517"
       y1="73.39492"
       x2="143.37872"
       y2="73.39492"
       gradientUnits="userSpaceOnUse" />
  </defs>
  <g
     id="layer1"
     transform="translate(-38.259856,-60.643282)">
    <path
       id="path26"
       style="display:inline;fill:url(#linearGradient3);stroke:#646464;stroke-width:1.188;stroke-linecap:round;stroke-linejoin:round"
       d="m 145.24046,125.44631 a 17.395935,17.395935 0 0 1 -23.89891,5.82694 17.395935,17.395935 0 0 1 -5.83193,-23.89769 17.395935,17.395935 0 0 1 23.89648,-5.8369 17.395935,17.395935 0 0 1 5.84189,23.89525 z" />
    <path
       id="rect26"
       d="m 124.80589,61.209282 h 11.14212 a 6.6145833,6.6145833 45 0 1 6.61458,6.614583 v 11.142112 a 6.6145833,6.6145833 135 0 1 -6.61458,6.614584 h -11.14212 a 6.6145833,6.6145833 45 0 1 -6.61458,-6.614584 V 67.823865 a 6.6145833,6.6145833 135 0 1 6.61458,-6.614583 z"
       style="display:inline;fill:url(#linearGradient23);fill-opacity:1;stroke:#646464;stroke-width:1.132;stroke-linecap:round;stroke-linejoin:round;stroke-dasharray:none;stroke-opacity:1" />
    <path
       id="path27"
       transform="matrix(0.86871334,0,0,0.88849676,10.720784,158.41843)"
       d="m 146.19453,13.411036 -16.90997,0.0753 A 3.8189314,3.8189314 59.744881 0 1 125.9518,7.7727171 l 8.38977,-14.6821064 a 3.8189314,3.8189314 179.74488 0 1 6.61452,-0.029452 l 8.52019,14.6068115 a 3.8189314,3.8189314 119.74488 0 1 -3.28175,5.7430658 z"
       style="display:inline;fill:url(#linearGradient8);stroke:#646464;stroke-width:1.36475;stroke-linecap:round;stroke-linejoin:round;stroke-dasharray:none;stroke-opacity:1" />
    <path
       id="path1"
       style="fill:url(#linearGradient5);stroke:#646464;stroke-width:2;stroke-linecap:round;stroke-linejoin:round;stroke-dasharray:none;stroke-opacity:1;paint-order:stroke fill markers"
       d="m 75.948659,78.085507 c -35.514505,1.349468 -50.136577,48.330243 -21.656454,69.596743 16.33573,12.90027 40.951388,9.85166 54.049725,-6.62055 1.67866,-2.11105 0.92123,-5.14451 -1.38478,-6.54683 -1.34345,-0.81697 -4.54228,0.34876 -7.64891,1.55837 -7.855294,3.05858 -17.562546,1.13815 -23.267293,-5.27703 -4.814331,-4.99731 -6.554855,-12.379 -5.107081,-19.0498 1.096087,-5.05037 7.068878,-11.57774 11.771917,-13.78251 5.642292,-2.645084 11.856636,-3.172697 17.380057,-0.836841 1.66396,0.703693 4.0758,0.669516 5.53843,-0.394885 2.05839,-1.49795 1.87093,-5.409235 -1.03657,-8.138474 C 96.96825,81.441405 86.44837,77.473596 75.948659,78.085507 Z" />
  </g>
</svg>
