<?xml version="1.0" encoding="UTF-8" standalone="no"?>
<!-- Created with Inkscape (http://www.inkscape.org/) -->

<svg
   width="321.22903mm"
   height="110.39017mm"
   viewBox="0 0 321.22903 110.39016"
   version="1.1"
   id="svg1"
   xmlns:xlink="http://www.w3.org/1999/xlink"
   xmlns="http://www.w3.org/2000/svg"
   xmlns:svg="http://www.w3.org/2000/svg">
  <defs
     id="defs1">
    <linearGradient
       id="linearGradient21">
      <stop
         style="stop-color:#000080;stop-opacity:1;"
         offset="0"
         id="stop22" />
      <stop
         style="stop-color:#44a866;stop-opacity:0.99520385;"
         offset="1"
         id="stop23" />
    </linearGradient>
    <linearGradient
       id="linearGradient9">
      <stop
         style="stop-color:#ff0000;stop-opacity:1;"
         offset="0"
         id="stop8" />
      <stop
         style="stop-color:#019d00;stop-opacity:1;"
         offset="1"
         id="stop9" />
    </linearGradient>
    <linearGradient
       id="linearGradient4">
      <stop
         style="stop-color:#000080;stop-opacity:1;"
         offset="0"
         id="stop3" />
      <stop
         style="stop-color:#a50080;stop-opacity:1;"
         offset="1"
         id="stop4" />
    </linearGradient>
    <linearGradient
       id="linearGradient1">
      <stop
         style="stop-color:#000080;stop-opacity:1;"
         offset="0"
         id="stop1" />
      <stop
         style="stop-color:#e20080;stop-opacity:1;"
         offset="1"
         id="stop2" />
    </linearGradient>
    <linearGradient
       xlink:href="#linearGradient4"
       id="linearGradient3"
       x1="111.93985"
       y1="116.40783"
       x2="148.81401"
       y2="116.40783"
       gradientUnits="userSpaceOnUse" />
    <linearGradient
       xlink:href="#linearGradient1"
       id="linearGradient5"
       gradientUnits="userSpaceOnUse"
       x1="38.107082"
       y1="116.87506"
       x2="112.13251"
       y2="116.87506" />
    <linearGradient
       xlink:href="#linearGradient9"
       id="linearGradient8"
       x1="121.81715"
       y1="0.43170619"
       x2="153.66194"
       y2="0.43170619"
       gradientUnits="userSpaceOnUse" />
    <linearGradient
       xlink:href="#linearGradient21"
       id="linearGradient23"
       x1="117.37517"
       y1="73.39492"
       x2="143.37872"
       y2="73.39492"
       gradientUnits="userSpaceOnUse" />
  </defs>
  <g
     id="layer1"
     transform="translate(-38.107084,-60.643282)">
    <path
       style="display:inline;fill:url(#linearGradient3);stroke:#646464;stroke-width:1.188;stroke-linecap:round;stroke-linejoin:round;stroke-dasharray:none;stroke-opacity:1"
       id="path26"
       d="m 145.24046,125.44631 a 17.395935,17.395935 0 0 1 -23.89891,5.82694 17.395935,17.395935 0 0 1 -5.83193,-23.89769 17.395935,17.395935 0 0 1 23.89648,-5.8369 17.395935,17.395935 0 0 1 5.84189,23.89525 z" />
    <rect
       style="display:inline;fill:url(#linearGradient23);fill-opacity:1;stroke:#646464;stroke-width:1.132;stroke-linecap:round;stroke-linejoin:round;stroke-dasharray:none;stroke-opacity:1"
       id="rect26"
       width="24.371286"
       height="24.371279"
       x="118.19131"
       y="61.209282"
       ry="0.46561545" />
    <path
       style="display:inline;fill:url(#linearGradient8);stroke:#646464;stroke-width:1.36475;stroke-linecap:round;stroke-linejoin:round;stroke-dasharray:none;stroke-opacity:1"
       id="path27"
       d="m 152.80905,13.381584 -30.139,0.1342 14.95328,-26.16824 z"
       transform="matrix(0.86871334,0,0,0.88849676,10.720784,158.41843)" />
    <path
       style="font-size:50.8px;font-family:Baskerville;-inkscape-font-specification:Baskerville;opacity:0.96;fill:#646464;stroke-width:1.5;stroke-linecap:round;stroke-linejoin:round;paint-order:stroke fill markers"
       d="m 178.28671,117.38362 q 5.72988,0.42168 8.50801,2.85254 2.77812,2.43086 2.77812,6.07715 0,3.175 -1.88515,5.48183 -1.88516,2.28204 -4.83692,3.00137 -2.92695,0.69453 -7.86308,0.69453 h -13.1961 v -1.14101 h 1.28985 q 2.158,0 2.97656,-0.54571 0.84336,-0.5457 1.0666,-1.68671 0.22324,-1.16582 0.22324,-5.38262 V 110.3639 q 0,-4.09278 -0.24804,-5.2834 -0.22325,-1.19063 -0.99219,-1.63711 -0.74414,-0.44649 -3.29903,-0.44649 h -0.64492 v -1.14101 l 5.53145,-0.14883 6.30039,-0.19844 q 13.7914,0 13.7914,7.9375 0,3.27422 -2.38125,5.2586 -2.35644,1.98437 -7.11894,2.6789 z m -6.07715,-0.47129 q 0.62012,0.0248 1.0418,0.0248 5.35781,0 7.31738,-1.68672 1.95957,-1.68672 1.95957,-5.45703 0,-2.6293 -0.76894,-4.06797 -0.76895,-1.43867 -2.30684,-2.20762 -1.53789,-0.79375 -5.25859,-0.79375 -0.96739,0 -1.98438,0.0744 z m 0,1.21543 v 7.49102 q 0,4.7873 0.17363,6.07715 0.17364,1.28984 0.91778,1.95957 0.76894,0.66972 3.00136,0.66972 3.96875,0 5.95313,-2.03398 1.98437,-2.03399 1.98437,-6.10195 0,-4.16719 -2.25722,-6.12676 -2.23242,-1.98438 -7.88789,-1.98438 -0.89297,0 -1.88516,0.0496 z m 23.01875,-14.13867 q 0,-1.0666 0.74414,-1.83555 0.76895,-0.76894 1.83555,-0.76894 1.0666,0 1.81074,0.76894 0.74414,0.76895 0.74414,1.83555 0,1.09141 -0.74414,1.86035 -0.74414,0.76895 -1.81074,0.76895 -1.0666,0 -1.83555,-0.76895 -0.74414,-0.76894 -0.74414,-1.86035 z m 4.78731,10.36836 v 14.16348 q 0,3.24941 0.0992,4.09277 0.0992,0.84336 0.71934,1.28984 0.62012,0.44649 2.20762,0.44649 h 0.5209 v 1.14101 h -10.93887 v -1.14101 h 0.84336 q 1.76113,0 2.28203,-0.4961 0.5457,-0.52089 0.62012,-1.21543 0.0992,-0.71933 0.0992,-4.11757 v -6.15157 q 0,-3.57187 -0.34727,-4.36562 -0.32246,-0.79375 -0.89297,-0.99219 -0.5457,-0.19844 -1.93476,-0.19844 h -0.66973 v -1.14101 q 4.41523,-0.44649 6.84609,-1.31465 z m 11.50937,0 h 0.66973 q 0.5705,1.53789 0.64492,4.19199 1.78594,-2.1084 3.74551,-3.15019 1.95957,-1.0418 4.09277,-1.0418 2.43086,0 3.96875,1.01699 1.56269,1.01699 2.00918,2.50528 0.44648,1.46347 0.44648,4.29121 v 6.35 q 0,3.52226 0.12403,4.29121 0.12402,0.76894 0.76894,1.16582 0.66973,0.37207 2.43086,0.37207 v 1.14101 H 220.033 v -1.14101 h 0.47129 q 1.78593,0 2.33164,-0.5209 0.5457,-0.5209 0.62011,-1.21543 0.0744,-0.69453 0.0744,-4.09277 v -6.54844 q 0,-2.40606 -0.24805,-3.42305 -0.22324,-1.0418 -1.26504,-1.83555 -1.01699,-0.79375 -2.60449,-0.79375 -1.81074,0 -3.47266,1.09141 -1.63711,1.0666 -3.10058,3.22461 v 8.28477 q 0,3.52226 0.12402,4.29121 0.14883,0.76894 0.79375,1.16582 0.66973,0.37207 2.45567,0.37207 v 1.14101 h -10.26915 v -1.14101 q 1.71153,0 2.38125,-0.34727 0.66973,-0.34726 0.81856,-1.04179 0.17363,-0.71934 0.17363,-4.44004 v -6.05235 q 0,-3.54707 -0.14883,-4.29121 -0.12402,-0.76894 -0.79375,-1.14101 -0.64492,-0.39688 -2.43086,-0.39688 v -1.14101 q 2.72852,-0.29766 5.58106,-1.14102 z m 39.06738,2.97656 v -7.9375 q 0,-3.24941 -0.0992,-4.09277 -0.0744,-0.84336 -0.69454,-1.28984 -0.62011,-0.44649 -2.20761,-0.44649 h -0.5209 v -1.14101 q 3.00137,-0.0744 6.57324,-1.0418 h 0.5209 v 27.30996 q 0,3.54707 0.12402,4.31601 0.12403,0.76895 0.76895,1.14102 0.66973,0.37207 2.45566,0.37207 v 1.14102 q -3.59668,0.0744 -6.39961,0.64492 -0.29765,-1.16582 -0.29765,-3.6711 -1.83555,1.83555 -3.79512,2.75332 -1.93477,0.91778 -4.01836,0.91778 -3.94394,0 -6.82129,-3.175 -2.85254,-3.175 -2.85254,-7.68946 0,-4.96093 2.92696,-8.01191 2.92695,-3.07578 6.97011,-3.07578 2.05879,0 3.89434,0.74414 1.83555,0.74414 3.47265,2.23242 z m 0,1.43867 q -1.6371,-1.41386 -3.29902,-2.10839 -1.63711,-0.71934 -3.29902,-0.71934 -2.80293,0 -4.68809,2.15801 -1.86035,2.15801 -1.86035,7.04453 0,4.96094 1.90996,7.31738 1.93477,2.35645 4.7625,2.35645 1.88516,0 3.49746,-0.89297 1.61231,-0.89297 2.97656,-2.67891 z m 34.94981,-16.91679 0.27285,8.38398 h -1.16582 q -0.34727,-2.75332 -1.5627,-4.53926 -1.19062,-1.81074 -2.50527,-2.25722 -1.31465,-0.44649 -4.44004,-0.44649 h -6.57324 v 14.2627 h 3.15019 q 3.05098,0 4.04317,-1.01699 1.01699,-1.0418 1.01699,-4.14239 h 1.24023 v 11.85664 h -1.24023 q 0,-2.158 -0.44649,-3.39824 -0.42167,-1.26504 -1.28984,-1.71152 -0.84336,-0.47129 -3.32383,-0.47129 h -3.15019 v 8.35918 q 0,3.96875 0.19844,5.20898 0.19843,1.21543 0.99218,1.81074 0.81856,0.59532 3.12539,0.59532 h 1.14102 v 1.14101 h -15.62695 v -1.14101 h 1.04179 q 2.15801,0 2.97657,-0.54571 0.84335,-0.5457 1.0666,-1.68671 0.24804,-1.16582 0.24804,-5.38262 v -16.49512 q 0,-4.01836 -0.24804,-5.18418 -0.22325,-1.16582 -0.99219,-1.6123 -0.74414,-0.44649 -3.29902,-0.44649 h -0.59532 v -1.14101 z m 10.1203,-0.47129 v 27.13633 q 0,3.24941 0.0744,4.09277 0.0992,0.84336 0.71933,1.28984 0.62012,0.44649 2.20762,0.44649 h 0.59531 v 1.14101 h -10.86445 v -1.14101 h 0.69453 q 1.48828,0 2.1084,-0.39688 0.64492,-0.42168 0.76894,-1.16582 0.12403,-0.74414 0.12403,-4.2664 v -20.0918 q 0,-3.19981 -0.57051,-4.01836 -0.57051,-0.84336 -2.77813,-0.84336 v -1.14101 q 1.51309,0 3.54707,-0.34727 2.05879,-0.34727 2.82774,-0.69453 z m 6.27559,23.91172 q 0,-4.66328 3.12539,-7.78868 3.12539,-3.15019 7.68946,-3.15019 4.58886,0 7.71425,3.15019 3.1254,3.1502 3.1254,7.78868 0,5.13457 -3.175,8.08632 -3.175,2.92696 -7.66465,2.92696 -4.48965,0 -7.66465,-2.97656 -3.1502,-3.00137 -3.1502,-8.03672 z m 4.11758,0.12402 q 0,5.40742 1.76113,7.59023 1.76114,2.15801 4.93614,2.15801 3.24941,0 4.96093,-2.15801 1.73633,-2.18281 1.73633,-7.59023 0,-5.35781 -1.71152,-7.63984 -1.71152,-2.28203 -4.98574,-2.28203 -3.24942,0 -4.98574,2.28203 -1.71153,2.25722 -1.71153,7.63984 z m 43.28418,10.86445 h -1.11622 l -6.05234,-16.12304 -6.17637,16.12304 h -1.0914 l -6.20117,-16.12304 q -1.06661,-2.75332 -1.5875,-3.29903 -0.5209,-0.5457 -2.0836,-0.5457 V 115.176 h 9.27695 v 1.14102 q -1.56269,0 -2.1332,0.29766 -0.57051,0.27285 -0.57051,0.96738 0,0.49609 0.96739,2.90215 l 4.11757,10.88926 6.3004,-16.19747 h 0.96738 l 6.10195,16.19747 4.46484,-11.53418 q 0.71934,-1.83555 0.71934,-2.20762 0,-1.21543 -2.50527,-1.31465 V 115.176 h 6.59804 v 1.14102 q -1.19062,0.0248 -1.88515,0.47129 -0.66973,0.42168 -1.24024,1.93476 l -0.5457,1.43868 z"
       id="text23"
       aria-label="BindFlow" />
    <path
       id="path1"
       style="fill:url(#linearGradient5);stroke:#646464;stroke-width:2;stroke-linecap:round;stroke-linejoin:round;stroke-dasharray:none;stroke-opacity:1;paint-order:stroke fill markers"
       d="m 75.948659,78.085507 c -3.675097,0.18943 -7.304623,0.900198 -10.77971,2.110982 -16.164398,5.631518 -26.736343,21.181311 -26.028383,38.283971 0.707929,17.10277 12.528986,31.72571 29.103653,36.00194 16.574683,4.27611 33.994671,-2.8028 42.888331,-17.4284 l -6.60787,-4.01835 c -6.909808,5.41083 -16.444688,5.98796 -23.956671,1.45004 -9.972575,-6.0613 -13.144361,-19.05868 -7.08484,-29.03234 7.457543,-12.274751 22.021056,-11.724066 29.492771,-6.793908 l 6.37532,-4.639507 C 101.62589,83.404252 89.060392,77.409986 75.948659,78.085507 Z" />
  </g>
</svg>
